<?xml version="1.0" encoding="UTF-8" standalone="no" ?>
<!DOCTYPE svg PUBLIC "-//W3C//DTD SVG 1.1//EN" "http://www.w3.org/Graphics/SVG/1.1/DTD/svg11.dtd">
<svg xmlns="http://www.w3.org/2000/svg" xmlns:xlink="http://www.w3.org/1999/xlink" version="1.1" width="1024" height="599" viewBox="0 0 1024 599" xml:space="preserve">
<desc>Created with Fabric.js 3.6.3</desc>
<defs>
</defs>
<g transform="matrix(1.5058927792825052 0 0 1.5058927792825052 513.2070106526108 300.4283309265719)" id="background-74b80654-215b-41ef-8718-1c0869cedafe"  >
<rect style="stroke: none; stroke-width: 1; stroke-dasharray: none; stroke-linecap: butt; stroke-dashoffset: 0; stroke-linejoin: miter; stroke-miterlimit: 4; fill: rgb(12,60,100); fill-rule: nonzero; opacity: 1;"  paint-order="stroke"  x="-340" y="-199" rx="0" ry="0" width="680" height="398" />
</g>
<g transform="matrix(7.099999999999999 0 0 7.099999999999999 -71.46720535451334 314.779377635798)" id="shape-3-logo"  >
<g style=""  paint-order="stroke"   >
		<g transform="matrix(1 0 0 1 0 0)" id="Layer_1"  >
<polygon style="stroke: none; stroke-width: 1; stroke-dasharray: none; stroke-linecap: butt; stroke-dashoffset: 0; stroke-linejoin: miter; stroke-miterlimit: 4; fill: rgb(255,222,89); fill-rule: nonzero; opacity: 1;"  paint-order="stroke"  points="65.34,45 -100,45 -65.34,-45 100,-45 65.34,45 " />
</g>
</g>
</g>
<g transform="matrix(1.5058927792825052 0 0 1.5058927792825052 303.337163354684 145.57001079320258)" id="text-logo-path"  >
<path style="stroke: none; stroke-width: 0; stroke-dasharray: none; stroke-linecap: butt; stroke-dashoffset: 0; stroke-linejoin: miter; stroke-miterlimit: 4; fill: rgb(12,60,100); fill-rule: nonzero; opacity: 1;"  paint-order="stroke"  transform=" translate(-152.62, 13.645)" d="M 0.84 -4.84 L 0.84 -4.84 L 0.84 -7.57 L 3.77 -7.57 L 3.77 -4.66 Q 3.77 -1.89 6.46 -1.89 L 6.46 -1.89 Q 9.23 -1.89 9.25 -4.66 L 9.25 -4.66 L 9.25 -24.77 L 3.77 -24.77 L 3.77 -27.3 L 12.18 -27.3 L 12.18 -4.84 Q 12.18 -2.15 10.66 -0.76 Q 9.15 0.64 6.46 0.64 Q 3.77 0.64 2.31 -0.75 Q 0.84 -2.13 0.84 -4.84 Z M 20.57 0 L 17.64 0 L 23.81 -27.3 L 28.22 -27.3 L 34.39 0 L 31.46 0 L 30.02 -6.3 L 22 -6.3 L 20.57 0 Z M 25.98 -24.01 L 22.56 -8.82 L 29.43 -8.82 L 25.98 -24.01 Z M 50.88 0 L 40.26 0 L 40.26 -27.3 L 43.19 -27.3 L 43.19 -2.52 L 50.88 -2.52 L 50.88 0 Z M 62.67 0 L 55.9 0 L 55.9 -27.3 L 62.67 -27.3 Q 65.95 -27.3 67.65 -25.75 Q 69.34 -24.2 69.34 -21.41 L 69.34 -21.41 L 69.34 -5.89 Q 69.34 -3.08 67.67 -1.54 Q 65.99 0 62.67 0 L 62.67 0 Z M 58.84 -24.77 L 58.84 -2.52 L 62.67 -2.52 Q 64.44 -2.52 65.42 -3.51 Q 66.4 -4.49 66.4 -5.89 L 66.4 -5.89 L 66.4 -21.41 Q 66.4 -22.76 65.42 -23.77 Q 64.44 -24.77 62.67 -24.77 L 62.67 -24.77 L 58.84 -24.77 Z M 89.5 0 L 77.11 0 L 77.11 -27.3 L 89.07 -27.3 L 89.07 -24.77 L 80.04 -24.77 L 80.04 -15.11 L 87.4 -15.11 L 87.4 -12.59 L 80.04 -12.59 L 80.04 -2.52 L 89.5 -2.52 L 89.5 0 Z M 108.18 0 L 95.79 0 L 95.79 -27.3 L 107.75 -27.3 L 107.75 -24.77 L 98.72 -24.77 L 98.72 -15.11 L 106.09 -15.11 L 106.09 -12.59 L 98.72 -12.59 L 98.72 -2.52 L 108.18 -2.52 L 108.18 0 Z M 117 0 L 114.04 0 L 114.04 -27.3 L 120.4 -27.3 Q 123.68 -27.3 125.37 -25.75 Q 127.07 -24.2 127.07 -21.41 L 127.07 -21.41 L 127.07 -14.27 Q 127.07 -11.46 125.38 -9.94 Q 123.7 -8.41 120.4 -8.41 L 120.4 -8.41 L 117 -8.41 L 117 0 Z M 117 -24.77 L 117 -10.91 L 120.4 -10.91 Q 124.13 -10.91 124.13 -14.27 L 124.13 -14.27 L 124.13 -21.41 Q 124.13 -23.01 123.17 -23.89 Q 122.21 -24.77 120.4 -24.77 L 120.4 -24.77 L 117 -24.77 Z M 145.97 -24.77 L 140.5 -24.77 L 140.5 -27.3 L 154.36 -27.3 L 154.36 -24.77 L 148.91 -24.77 L 148.91 0 L 145.97 0 L 145.97 -24.77 Z M 158.55 0 L 155.61 0 L 161.79 -27.3 L 166.2 -27.3 L 172.37 0 L 169.44 0 L 168 -6.3 L 159.98 -6.3 L 158.55 0 Z M 163.96 -24.01 L 160.54 -8.82 L 167.41 -8.82 L 163.96 -24.01 Z M 181.17 0 L 178.23 0 L 178.23 -27.3 L 184.57 -27.3 Q 187.85 -27.3 189.55 -25.75 Q 191.26 -24.2 191.26 -21.41 L 191.26 -21.41 L 191.26 -15.54 Q 191.26 -11.26 187.54 -10.09 L 187.54 -10.09 L 192.71 0 L 189.49 0 L 184.57 -9.66 L 181.17 -9.66 L 181.17 0 Z M 181.17 -24.77 L 181.17 -12.18 L 184.57 -12.18 Q 188.3 -12.18 188.3 -15.54 L 188.3 -15.54 L 188.3 -21.41 Q 188.3 -23.01 187.34 -23.89 Q 186.38 -24.77 184.57 -24.77 L 184.57 -24.77 L 181.17 -24.77 Z M 197.76 -5.25 L 197.76 -5.25 L 197.76 -8.82 L 200.69 -8.82 L 200.69 -5.09 Q 200.69 -3.57 201.75 -2.73 Q 202.8 -1.89 204.85 -1.89 Q 206.9 -1.89 207.96 -2.73 Q 209.02 -3.57 209.02 -5.01 Q 209.02 -6.46 208.7 -7.32 Q 208.38 -8.18 207.42 -9.15 L 207.42 -9.15 L 200.01 -16.39 Q 198.72 -17.68 198.24 -18.92 Q 197.76 -20.16 197.76 -22.05 L 197.76 -22.05 Q 197.76 -24.86 199.5 -26.39 Q 201.24 -27.93 204.77 -27.93 L 204.77 -27.93 Q 211.54 -27.93 211.54 -22.05 L 211.54 -22.05 L 211.54 -18.48 L 208.58 -18.48 L 208.58 -22.21 Q 208.58 -23.73 207.6 -24.57 Q 206.62 -25.41 204.64 -25.41 Q 202.66 -25.41 201.67 -24.57 Q 200.69 -23.73 200.69 -22.26 Q 200.69 -20.79 200.99 -19.95 Q 201.28 -19.11 202.29 -18.19 L 202.29 -18.19 L 209.82 -10.97 Q 211.03 -9.62 211.49 -8.38 Q 211.95 -7.14 211.95 -5.25 L 211.95 -5.25 Q 211.95 0.64 204.85 0.64 Q 197.76 0.64 197.76 -5.25 Z M 219.91 0 L 216.97 0 L 223.15 -27.3 L 227.55 -27.3 L 233.73 0 L 230.79 0 L 229.36 -6.3 L 221.34 -6.3 L 219.91 0 Z M 225.32 -24.01 L 221.89 -8.82 L 228.76 -8.82 L 225.32 -24.01 Z M 242.53 0 L 239.59 0 L 239.59 -27.3 L 245.93 -27.3 Q 249.21 -27.3 250.91 -25.75 Q 252.62 -24.2 252.62 -21.41 L 252.62 -21.41 L 252.62 -15.54 Q 252.62 -11.26 248.9 -10.09 L 248.9 -10.09 L 254.07 0 L 250.85 0 L 245.93 -9.66 L 242.53 -9.66 L 242.53 0 Z M 242.53 -24.77 L 242.53 -12.18 L 245.93 -12.18 Q 249.66 -12.18 249.66 -15.54 L 249.66 -15.54 L 249.66 -21.41 Q 249.66 -23.01 248.7 -23.89 Q 247.73 -24.77 245.93 -24.77 L 245.93 -24.77 L 242.53 -24.77 Z M 265.84 0 L 258.69 0 L 258.69 -2.52 L 260.8 -2.52 L 260.8 -24.77 L 258.69 -24.77 L 258.69 -27.3 L 265.84 -27.3 L 265.84 -24.77 L 263.73 -24.77 L 263.73 -2.52 L 265.84 -2.52 L 265.84 0 Z M 276.73 -9.78 L 269.8 -27.3 L 272.92 -27.3 L 278.21 -13.23 L 283.5 -27.3 L 286.6 -27.3 L 279.67 -9.74 L 279.67 0 L 276.73 0 L 276.73 -9.78 Z M 290.58 0 L 287.64 0 L 293.82 -27.3 L 298.22 -27.3 L 304.4 0 L 301.46 0 L 300.03 -6.3 L 292.01 -6.3 L 290.58 0 Z M 295.99 -24.01 L 292.56 -8.82 L 299.43 -8.82 L 295.99 -24.01 Z" stroke-linecap="round" />
</g>
<g transform="matrix(1.5058927792825052 0 0 1.5058927792825052 179.47977639222884 229.50414160076446)" id="tagline-89f70867-8e2f-4e03-87e7-9e8bd6ddb863-logo-path"  >
<path style="stroke: none; stroke-width: 0; stroke-dasharray: none; stroke-linecap: butt; stroke-dashoffset: 0; stroke-linejoin: miter; stroke-miterlimit: 4; fill: rgb(12,60,100); fill-rule: nonzero; opacity: 1;"  paint-order="stroke"  transform=" translate(-70.37000000000002, 7.800000000000001)" d="M 4.08 0 L 2.4 0 L 2.4 -15.6 L 9 -15.6 L 9 -14.16 L 4.08 -14.16 L 4.08 -8.64 L 8.04 -8.64 L 8.04 -7.2 L 4.08 -7.2 L 4.08 0 Z M 11.99 -3 L 11.99 -3 L 11.99 -12.6 Q 11.99 -14.2 13.01 -15.08 Q 14.03 -15.96 16.05 -15.96 Q 18.08 -15.96 19.11 -15.08 Q 20.14 -14.2 20.14 -12.6 L 20.14 -12.6 L 20.14 -3 Q 20.14 -1.39 19.13 -0.52 Q 18.11 0.36 16.08 0.36 Q 14.05 0.36 13.02 -0.52 Q 11.99 -1.39 11.99 -3 Z M 13.66 -12.6 L 13.66 -3 Q 13.66 -1.08 16.07 -1.08 Q 18.47 -1.08 18.47 -3 L 18.47 -3 L 18.47 -12.6 Q 18.47 -14.52 16.07 -14.52 Q 13.66 -14.52 13.66 -12.6 L 13.66 -12.6 Z M 24.34 -3 L 24.34 -3 L 24.34 -15.6 L 26.03 -15.6 L 26.03 -3 Q 26.03 -1.08 28.42 -1.08 Q 30.82 -1.08 30.82 -3 L 30.82 -3 L 30.82 -15.6 L 32.51 -15.6 L 32.51 -3 Q 32.51 -1.39 31.49 -0.52 Q 30.47 0.36 28.44 0.36 Q 26.4 0.36 25.37 -0.52 Q 24.34 -1.39 24.34 -3 Z M 38.73 0 L 37.05 0 L 37.05 -15.6 L 38.73 -15.6 L 43.95 -3.6 L 43.95 -15.6 L 45.62 -15.6 L 45.62 0 L 43.95 0 L 38.73 -12 L 38.73 0 Z M 54.28 0 L 50.41 0 L 50.41 -15.6 L 54.28 -15.6 Q 56.16 -15.6 57.12 -14.71 Q 58.09 -13.83 58.09 -12.23 L 58.09 -12.23 L 58.09 -3.36 Q 58.09 -1.76 57.13 -0.88 Q 56.18 0 54.28 0 L 54.28 0 Z M 52.09 -14.16 L 52.09 -1.44 L 54.28 -1.44 Q 55.29 -1.44 55.85 -2 Q 56.41 -2.57 56.41 -3.36 L 56.41 -3.36 L 56.41 -12.23 Q 56.41 -13.01 55.85 -13.58 Q 55.29 -14.16 54.28 -14.16 L 54.28 -14.16 L 52.09 -14.16 Z M 69.61 0 L 62.53 0 L 62.53 -15.6 L 69.36 -15.6 L 69.36 -14.16 L 64.21 -14.16 L 64.21 -8.64 L 68.41 -8.64 L 68.41 -7.2 L 64.21 -7.2 L 64.21 -1.44 L 69.61 -1.44 L 69.61 0 Z M 74.88 0 L 73.21 0 L 73.21 -15.6 L 76.83 -15.6 Q 78.7 -15.6 79.68 -14.71 Q 80.65 -13.83 80.65 -12.23 L 80.65 -12.23 L 80.65 -8.88 Q 80.65 -6.43 78.53 -5.77 L 78.53 -5.77 L 81.48 0 L 79.64 0 L 76.83 -5.52 L 74.88 -5.52 L 74.88 0 Z M 74.88 -14.16 L 74.88 -6.96 L 76.83 -6.96 Q 78.96 -6.96 78.96 -8.88 L 78.96 -8.88 L 78.96 -12.23 Q 78.96 -13.15 78.41 -13.65 Q 77.86 -14.16 76.83 -14.16 L 76.83 -14.16 L 74.88 -14.16 Z M 89.64 -3 L 89.64 -3 L 89.64 -5.16 Q 89.64 -7.72 91.37 -8.38 L 91.37 -8.38 Q 90.13 -10.32 90.12 -11.4 L 90.12 -11.4 L 90.12 -12.6 Q 90.12 -14.2 91.11 -15.08 Q 92.11 -15.96 94.13 -15.96 L 94.13 -15.96 Q 97.99 -15.96 97.99 -12.6 L 97.99 -12.6 L 97.99 -10.56 L 96.32 -10.56 L 96.32 -12.69 Q 96.32 -13.56 95.75 -14.04 Q 95.18 -14.52 94.05 -14.52 Q 92.93 -14.52 92.37 -14.04 Q 91.8 -13.56 91.8 -12.69 L 91.8 -12.69 L 91.8 -11.4 Q 91.8 -10.54 93.12 -8.64 L 93.12 -8.64 L 99.69 -8.64 L 99.69 -7.2 L 97.76 -7.2 L 97.76 -3 Q 97.76 0.36 93.7 0.36 Q 89.64 0.36 89.64 -3 Z M 91.32 -5.16 L 91.32 -2.91 Q 91.32 -2.04 91.92 -1.56 Q 92.52 -1.08 93.7 -1.08 Q 94.88 -1.08 95.47 -1.56 Q 96.07 -2.04 96.07 -2.91 L 96.07 -2.91 L 96.07 -7.2 L 92.98 -7.2 Q 91.32 -7.2 91.32 -5.16 L 91.32 -5.16 Z M 107.75 -3 L 107.75 -3 L 107.75 -12.6 Q 107.75 -14.2 108.74 -15.08 Q 109.72 -15.96 111.69 -15.96 Q 113.66 -15.96 114.67 -15.08 Q 115.68 -14.2 115.68 -12.6 L 115.68 -12.6 L 115.68 -10.32 L 114 -10.32 L 114 -12.6 Q 114 -14.52 111.71 -14.52 Q 109.43 -14.52 109.43 -12.6 L 109.43 -12.6 L 109.43 -3 Q 109.43 -1.08 111.71 -1.08 Q 114 -1.08 114 -3 L 114 -3 L 114 -4.32 L 115.68 -4.32 L 115.68 -3 Q 115.68 -1.39 114.69 -0.52 Q 113.71 0.36 111.74 0.36 Q 109.77 0.36 108.76 -0.52 Q 107.75 -1.39 107.75 -3 Z M 126.95 0 L 119.87 0 L 119.87 -15.6 L 126.7 -15.6 L 126.7 -14.16 L 121.55 -14.16 L 121.55 -8.64 L 125.75 -8.64 L 125.75 -7.2 L 121.55 -7.2 L 121.55 -1.44 L 126.95 -1.44 L 126.95 0 Z M 130.18 -3 L 130.18 -3 L 130.18 -12.6 Q 130.18 -14.2 131.2 -15.08 Q 132.22 -15.96 134.25 -15.96 Q 136.28 -15.96 137.31 -15.08 Q 138.34 -14.2 138.34 -12.6 L 138.34 -12.6 L 138.34 -3 Q 138.34 -1.39 137.32 -0.52 Q 136.3 0.36 134.27 0.36 Q 132.25 0.36 131.21 -0.52 Q 130.18 -1.39 130.18 -3 Z M 131.86 -12.6 L 131.86 -3 Q 131.86 -1.08 134.26 -1.08 Q 136.66 -1.08 136.66 -3 L 136.66 -3 L 136.66 -12.6 Q 136.66 -14.52 134.26 -14.52 Q 131.86 -14.52 131.86 -12.6 L 131.86 -12.6 Z" stroke-linecap="round" />
</g>
<g transform="matrix(1.5058927792825052 0 0 1.5058927792825052 87.97937816555657 358.6813849239577)" id="tagline-44b23ec9-c68a-4623-835e-888871984792-logo-path"  >
<path style="stroke: rgb(255,255,255); stroke-width: 0; stroke-dasharray: none; stroke-linecap: butt; stroke-dashoffset: 0; stroke-linejoin: miter; stroke-miterlimit: 4; fill: rgb(12,60,100); fill-rule: nonzero; opacity: 1;"  paint-order="stroke"  transform=" translate(-6.615, 8.775)" d="M 4.32 0 L 2.43 0 L 2.43 -17.55 L 6.51 -17.55 Q 8.62 -17.55 9.71 -16.55 Q 10.8 -15.56 10.8 -13.76 L 10.8 -13.76 L 10.8 -9.18 Q 10.8 -7.37 9.72 -6.39 Q 8.64 -5.41 6.51 -5.41 L 6.51 -5.41 L 4.32 -5.41 L 4.32 0 Z M 4.32 -15.93 L 4.32 -7.01 L 6.51 -7.01 Q 8.91 -7.01 8.91 -9.18 L 8.91 -9.18 L 8.91 -13.76 Q 8.91 -14.79 8.29 -15.36 Q 7.67 -15.93 6.51 -15.93 L 6.51 -15.93 L 4.32 -15.93 Z" stroke-linecap="round" />
</g>
<g transform="matrix(1.5058927792825052 0 0 1.5058927792825052 88.09511426099542 411.660312016239)" id="tagline-3329eacd-a3f7-4970-9aa8-94d0e4bbc252-logo-path"  >
<path style="stroke: none; stroke-width: 0; stroke-dasharray: none; stroke-linecap: butt; stroke-dashoffset: 0; stroke-linejoin: miter; stroke-miterlimit: 4; fill: rgb(12,60,100); fill-rule: nonzero; opacity: 1;"  paint-order="stroke"  transform=" translate(-6.6850000000000005, 8.775)" d="M 10.67 0 L 2.7 0 L 2.7 -17.55 L 10.39 -17.55 L 10.39 -15.93 L 4.59 -15.93 L 4.59 -9.72 L 9.32 -9.72 L 9.32 -8.09 L 4.59 -8.09 L 4.59 -1.62 L 10.67 -1.62 L 10.67 0 Z" stroke-linecap="round" />
</g>
<g transform="matrix(1.5058927792825052 0 0 1.5058927792825052 91.91293481206499 464.63923910851986)" id="tagline-5bca820c-84cc-4f99-b444-568ff29fffef-logo-path"  >
<path style="stroke: none; stroke-width: 0; stroke-dasharray: none; stroke-linecap: butt; stroke-dashoffset: 0; stroke-linejoin: miter; stroke-miterlimit: 4; fill: rgb(12,60,100); fill-rule: nonzero; opacity: 1;"  paint-order="stroke"  transform=" translate(-9.219999999999999, 8.775)" d="M 3.84 0 L 1.21 -17.55 L 3.11 -17.55 L 5.31 -2.73 L 8.21 -17.55 L 10.23 -17.55 L 13.12 -2.73 L 15.33 -17.55 L 17.23 -17.55 L 14.61 0 L 11.96 0 L 9.2 -14.01 L 6.49 0 L 3.84 0 Z" stroke-linecap="round" />
</g>
<g transform="matrix(1.5058927792825052 0 0 1.5058927792825052 212.8764262461068 358.6057677424764)" id="tagline-47b40996-2b74-43e5-ac78-5f05afc51d38-logo-path"  >
<path style="stroke: none; stroke-width: 0; stroke-dasharray: none; stroke-linecap: butt; stroke-dashoffset: 0; stroke-linejoin: miter; stroke-miterlimit: 4; fill: rgb(12,60,100); fill-rule: nonzero; opacity: 1;"  paint-order="stroke"  transform=" translate(-58.43, 7.4750000000000005)" d="M 1.95 -9.31 L 1.95 -9.31 L 1.95 -12.07 Q 1.95 -13.61 2.93 -14.45 Q 3.91 -15.3 5.85 -15.3 Q 7.79 -15.3 8.78 -14.45 Q 9.77 -13.61 9.77 -12.07 L 9.77 -12.07 L 9.75 -12.05 L 9.77 -12.05 L 9.77 -2.88 Q 9.77 0.35 5.88 0.35 Q 2 0.35 2 -2.88 L 2 -2.88 L 2 -4.37 L 3.62 -4.37 L 3.62 -2.79 Q 3.62 -1.03 5.89 -1.03 Q 8.16 -1.03 8.16 -2.79 L 8.16 -2.79 L 8.16 -6.9 Q 7.4 -6.09 5.67 -6.09 Q 3.93 -6.1 2.94 -6.93 Q 1.95 -7.77 1.95 -9.31 Z M 3.56 -12.07 L 3.56 -9.31 Q 3.56 -7.47 5.86 -7.47 Q 8.16 -7.47 8.16 -9.31 L 8.16 -9.31 L 8.16 -12.07 Q 8.16 -13.91 5.86 -13.91 Q 3.56 -13.91 3.56 -12.07 L 3.56 -12.07 Z M 13.68 -9.31 L 13.68 -9.31 L 13.68 -12.07 Q 13.68 -13.61 14.66 -14.45 Q 15.63 -15.3 17.58 -15.3 Q 19.52 -15.3 20.51 -14.45 Q 21.5 -13.61 21.5 -12.07 L 21.5 -12.07 L 21.47 -12.05 L 21.5 -12.05 L 21.5 -2.88 Q 21.5 0.35 17.61 0.35 Q 13.72 0.35 13.72 -2.88 L 13.72 -2.88 L 13.72 -4.37 L 15.34 -4.37 L 15.34 -2.79 Q 15.34 -1.03 17.61 -1.03 Q 19.89 -1.03 19.89 -2.79 L 19.89 -2.79 L 19.89 -6.9 Q 19.13 -6.09 17.39 -6.09 Q 15.66 -6.1 14.67 -6.93 Q 13.68 -7.77 13.68 -9.31 Z M 15.28 -12.07 L 15.28 -9.31 Q 15.28 -7.47 17.59 -7.47 Q 19.89 -7.47 19.89 -9.31 L 19.89 -9.31 L 19.89 -12.07 Q 19.89 -13.91 17.59 -13.91 Q 15.28 -13.91 15.28 -12.07 L 15.28 -12.07 Z M 25.4 -2.88 L 25.4 -2.88 L 25.4 -12.07 Q 25.4 -13.61 26.38 -14.45 Q 27.36 -15.3 29.3 -15.3 Q 31.24 -15.3 32.23 -14.45 Q 33.22 -13.61 33.22 -12.07 L 33.22 -12.07 L 33.22 -2.88 Q 33.22 -1.34 32.24 -0.49 Q 31.27 0.35 29.32 0.35 Q 27.38 0.35 26.39 -0.49 Q 25.4 -1.34 25.4 -2.88 Z M 27.01 -12.07 L 27.01 -2.88 Q 27.01 -1.03 29.31 -1.03 Q 31.61 -1.03 31.61 -2.88 L 31.61 -2.88 L 31.61 -12.07 Q 31.61 -13.91 29.31 -13.91 Q 27.01 -13.91 27.01 -12.07 L 27.01 -12.07 Z M 41.98 -3.45 L 35.88 -3.45 L 35.88 -4.83 L 41.98 -14.95 L 43.6 -14.95 L 43.6 -4.83 L 44.74 -4.83 L 44.74 -3.45 L 43.6 -3.45 L 43.6 0 L 41.98 0 L 41.98 -3.45 Z M 41.98 -12.29 L 37.5 -4.83 L 41.98 -4.83 L 41.98 -12.29 Z M 48.9 -2.88 L 48.9 -2.88 L 48.9 -4.83 L 50.51 -4.83 L 50.51 -2.79 Q 50.51 -1.95 51.09 -1.49 Q 51.66 -1.03 52.79 -1.03 Q 53.92 -1.03 54.49 -1.49 Q 55.06 -1.95 55.06 -2.79 L 55.06 -2.79 L 55.06 -5.64 Q 55.06 -6.38 54.51 -6.99 Q 53.96 -7.59 53.02 -7.59 L 53.02 -7.59 L 49.13 -7.59 L 49.13 -14.95 L 56.44 -14.95 L 56.44 -13.57 L 50.74 -13.57 L 50.74 -8.97 L 53.02 -8.97 Q 54.79 -8.97 55.73 -8.07 Q 56.67 -7.18 56.67 -5.64 L 56.67 -5.64 L 56.67 -2.88 Q 56.67 0.35 52.78 0.35 Q 48.9 0.35 48.9 -2.88 Z M 60.58 -2.88 L 60.58 -2.88 L 60.58 -12.07 Q 60.58 -13.61 61.55 -14.45 Q 62.53 -15.3 64.47 -15.3 Q 66.42 -15.3 67.41 -14.45 Q 68.39 -13.61 68.39 -12.07 L 68.39 -12.07 L 68.39 -2.88 Q 68.39 -1.34 67.42 -0.49 Q 66.44 0.35 64.5 0.35 Q 62.55 0.35 61.57 -0.49 Q 60.58 -1.34 60.58 -2.88 Z M 62.18 -12.07 L 62.18 -2.88 Q 62.18 -1.03 64.49 -1.03 Q 66.79 -1.03 66.79 -2.88 L 66.79 -2.88 L 66.79 -12.07 Q 66.79 -13.91 64.49 -13.91 Q 62.18 -13.91 62.18 -12.07 L 62.18 -12.07 Z M 72.35 -2.88 L 72.35 -2.88 L 72.35 -4.83 L 73.96 -4.83 L 73.96 -2.79 Q 73.96 -1.95 74.54 -1.49 Q 75.11 -1.03 76.24 -1.03 Q 77.37 -1.03 77.94 -1.49 Q 78.51 -1.95 78.51 -2.79 L 78.51 -2.79 L 78.51 -4.94 Q 78.51 -5.68 77.96 -6.29 Q 77.41 -6.9 76.47 -6.9 L 76.47 -6.9 L 74.14 -6.9 L 74.14 -8.05 L 76.23 -8.05 Q 77.2 -8.05 77.74 -8.65 Q 78.29 -9.24 78.29 -10.01 L 78.29 -10.01 L 78.29 -12.16 Q 78.29 -12.99 77.74 -13.45 Q 77.2 -13.91 76.12 -13.91 Q 75.04 -13.91 74.5 -13.45 Q 73.96 -12.99 73.96 -12.16 L 73.96 -12.16 L 73.96 -10.12 L 72.35 -10.12 L 72.35 -12.07 Q 72.35 -15.3 76.05 -15.3 L 76.05 -15.3 Q 77.98 -15.3 78.94 -14.45 Q 79.89 -13.61 79.89 -12.07 L 79.89 -12.07 L 79.89 -10.01 Q 79.89 -8.05 78.27 -7.5 L 78.27 -7.5 Q 80.13 -7 80.12 -4.94 L 80.12 -4.94 L 80.12 -2.88 Q 80.12 0.35 76.23 0.35 Q 72.35 0.35 72.35 -2.88 Z M 84.03 -2.88 L 84.03 -2.88 L 84.05 -2.9 L 84.03 -2.9 L 84.03 -12.07 Q 84.03 -15.3 87.91 -15.3 Q 91.8 -15.3 91.8 -12.07 L 91.8 -12.07 L 91.8 -10.58 L 90.19 -10.58 L 90.19 -12.16 Q 90.19 -13.91 87.91 -13.91 Q 85.63 -13.91 85.63 -12.16 L 85.63 -12.16 L 85.63 -8.03 Q 86.42 -8.86 88.14 -8.86 Q 89.87 -8.85 90.85 -8.01 Q 91.84 -7.18 91.84 -5.64 L 91.84 -5.64 L 91.84 -2.88 Q 91.84 -1.34 90.87 -0.49 Q 89.89 0.35 87.95 0.35 Q 86 0.35 85.01 -0.49 Q 84.03 -1.34 84.03 -2.88 Z M 85.63 -5.79 L 85.63 -2.88 Q 85.63 -1.03 87.93 -1.03 Q 90.24 -1.03 90.24 -2.88 L 90.24 -2.88 L 90.24 -5.64 Q 90.24 -7.48 88 -7.48 Q 85.76 -7.48 85.63 -5.79 L 85.63 -5.79 Z M 103.61 0 L 95.86 0 L 95.86 -1.38 L 100.23 -7.57 Q 100.32 -7.68 100.58 -8.05 Q 100.84 -8.42 100.95 -8.58 Q 101.06 -8.74 101.27 -9.06 Q 101.48 -9.39 101.58 -9.58 Q 101.68 -9.77 101.8 -10.03 L 101.8 -10.03 Q 102.03 -10.49 102.03 -10.93 L 102.03 -10.93 L 102.03 -12.16 Q 102.03 -12.99 101.49 -13.45 Q 100.95 -13.91 99.87 -13.91 Q 98.78 -13.91 98.24 -13.45 Q 97.71 -12.99 97.71 -12.16 L 97.71 -12.16 L 97.71 -10.12 L 96.1 -10.12 L 96.1 -12.07 Q 96.1 -15.3 99.81 -15.3 L 99.81 -15.3 Q 101.74 -15.3 102.69 -14.45 Q 103.65 -13.61 103.65 -12.07 L 103.65 -12.07 L 103.65 -10.93 Q 103.65 -10.14 103.15 -9.21 Q 102.65 -8.28 101.48 -6.6 L 101.48 -6.6 L 97.82 -1.38 L 103.61 -1.38 L 103.61 0 Z M 113.25 -13.57 L 107.39 -13.57 L 107.39 -14.95 L 114.91 -14.95 L 114.91 -13.57 L 110.7 0 L 109.04 0 L 113.25 -13.57 Z" stroke-linecap="round" />
</g>
<g transform="matrix(1.5058927792825052 0 0 1.5058927792825052 297.59998343435643 415.49719500368894)" id="tagline-ac5c4904-24ac-47e1-b8d3-3a396d93476f-logo-path"  >
<path style="stroke: none; stroke-width: 0; stroke-dasharray: none; stroke-linecap: butt; stroke-dashoffset: 0; stroke-linejoin: miter; stroke-miterlimit: 4; fill: rgb(12,60,100); fill-rule: nonzero; opacity: 1;"  paint-order="stroke"  transform=" translate(-114.695, 7.475000000000001)" d="M 0.46 -2.65 L 0.46 -2.65 L 0.46 -4.14 L 2.07 -4.14 L 2.07 -2.55 Q 2.07 -1.03 3.54 -1.03 L 3.54 -1.03 Q 5.05 -1.03 5.06 -2.55 L 5.06 -2.55 L 5.06 -14.95 L 6.67 -14.95 L 6.67 -2.65 Q 6.67 -1.18 5.84 -0.42 Q 5.01 0.35 3.54 0.35 Q 2.07 0.35 1.26 -0.41 Q 0.46 -1.17 0.46 -2.65 Z M 10.58 -2.88 L 10.58 -2.88 L 10.58 -5.18 Q 10.58 -8.4 13.89 -8.4 L 13.89 -8.4 L 16.55 -8.4 L 16.55 -12.16 Q 16.55 -12.99 16.03 -13.45 Q 15.5 -13.91 14.46 -13.91 L 14.46 -13.91 Q 12.42 -13.91 12.42 -12.16 L 12.42 -12.16 L 12.42 -10.81 L 10.8 -10.81 L 10.8 -12.07 Q 10.8 -13.61 11.71 -14.45 Q 12.62 -15.3 14.46 -15.3 Q 16.31 -15.3 17.24 -14.45 Q 18.17 -13.61 18.17 -12.07 L 18.17 -12.07 L 18.17 0 L 17.47 0 L 16.88 -1.47 Q 16.4 -0.64 15.62 -0.15 Q 14.84 0.35 13.89 0.35 L 13.89 0.35 Q 10.58 0.35 10.58 -2.88 Z M 12.19 -5.18 L 12.19 -2.88 Q 12.19 -2 12.56 -1.52 Q 12.93 -1.03 13.89 -1.03 Q 14.86 -1.03 15.68 -1.78 Q 16.51 -2.53 16.55 -3.27 L 16.55 -3.27 L 16.55 -7.02 L 13.89 -7.02 Q 12.93 -7.02 12.56 -6.54 Q 12.19 -6.05 12.19 -5.18 L 12.19 -5.18 Z M 28.36 0 L 22.54 0 L 22.54 -14.95 L 24.15 -14.95 L 24.15 -1.38 L 28.36 -1.38 L 28.36 0 Z M 34.81 0 L 31.11 0 L 31.11 -14.95 L 34.81 -14.95 Q 36.61 -14.95 37.54 -14.1 Q 38.46 -13.25 38.46 -11.72 L 38.46 -11.72 L 38.46 -3.22 Q 38.46 -1.68 37.55 -0.84 Q 36.63 0 34.81 0 L 34.81 0 Z M 32.71 -13.57 L 32.71 -1.38 L 34.81 -1.38 Q 36.86 -1.38 36.86 -3.22 L 36.86 -3.22 L 36.86 -11.72 Q 36.86 -12.6 36.33 -13.08 Q 35.8 -13.57 34.81 -13.57 L 34.81 -13.57 L 32.71 -13.57 Z M 42.37 -2.88 L 42.37 -2.88 L 42.37 -12.07 Q 42.37 -13.61 43.32 -14.45 Q 44.26 -15.3 46.15 -15.3 Q 48.03 -15.3 49 -14.45 Q 49.96 -13.61 49.96 -12.07 L 49.96 -12.07 L 49.96 -7.02 L 43.98 -7.02 L 43.98 -2.88 Q 43.98 -1.03 46.17 -1.03 Q 48.36 -1.03 48.36 -2.88 L 48.36 -2.88 L 48.36 -4.14 L 49.96 -4.14 L 49.96 -2.88 Q 49.96 -1.34 49.02 -0.49 Q 48.08 0.35 46.19 0.35 Q 44.3 0.35 43.34 -0.49 Q 42.37 -1.34 42.37 -2.88 Z M 43.98 -12.07 L 43.98 -8.4 L 48.36 -8.4 L 48.36 -12.07 Q 48.36 -13.91 46.17 -13.91 Q 43.98 -13.91 43.98 -12.07 L 43.98 -12.07 Z M 53.87 -2.88 L 53.87 -2.88 L 53.87 -12.07 Q 53.87 -13.61 54.82 -14.45 Q 55.76 -15.3 57.65 -15.3 Q 59.53 -15.3 60.5 -14.45 Q 61.46 -13.61 61.46 -12.07 L 61.46 -12.07 L 61.46 -7.02 L 55.48 -7.02 L 55.48 -2.88 Q 55.48 -1.03 57.67 -1.03 Q 59.86 -1.03 59.86 -2.88 L 59.86 -2.88 L 59.86 -4.14 L 61.46 -4.14 L 61.46 -2.88 Q 61.46 -1.34 60.52 -0.49 Q 59.58 0.35 57.69 0.35 Q 55.8 0.35 54.84 -0.49 Q 53.87 -1.34 53.87 -2.88 Z M 55.48 -12.07 L 55.48 -8.4 L 59.86 -8.4 L 59.86 -12.07 Q 59.86 -13.91 57.67 -13.91 Q 55.48 -13.91 55.48 -12.07 L 55.48 -12.07 Z M 67.1 0 L 65.48 0 L 65.48 -14.95 L 68.97 -14.95 Q 70.76 -14.95 71.69 -14.1 Q 72.62 -13.25 72.62 -11.72 L 72.62 -11.72 L 72.62 -7.82 Q 72.62 -6.28 71.7 -5.44 Q 70.77 -4.6 68.97 -4.6 L 68.97 -4.6 L 67.1 -4.6 L 67.1 0 Z M 67.1 -13.57 L 67.1 -5.97 L 68.97 -5.97 Q 71.01 -5.97 71.01 -7.82 L 71.01 -7.82 L 71.01 -11.72 Q 71.01 -12.6 70.48 -13.08 Q 69.95 -13.57 68.97 -13.57 L 68.97 -13.57 L 67.1 -13.57 Z M 76.76 -3.29 L 76.76 -3.29 L 76.76 -11.66 Q 76.76 -13.94 78.21 -15.19 Q 79.66 -16.44 82.54 -16.44 Q 85.43 -16.44 86.91 -15.19 Q 88.4 -13.94 88.4 -11.66 L 88.4 -11.66 L 88.4 -6.69 L 85.43 -6.69 L 85.43 -3.73 Q 85.43 -1.18 82.46 -1.17 Q 79.49 -1.17 79.49 -3.73 L 79.49 -3.73 L 79.49 -5.4 Q 79.49 -6.59 80.11 -7.23 Q 80.74 -7.86 82.18 -7.86 L 82.18 -7.86 L 83.96 -7.86 L 83.96 -11.32 Q 83.96 -11.92 83.59 -12.26 Q 83.22 -12.6 82.53 -12.6 L 82.53 -12.6 Q 81.15 -12.6 81.15 -11.32 L 81.15 -11.32 L 81.15 -9.31 L 79.66 -9.31 L 79.66 -11.24 Q 79.66 -13.79 82.54 -13.79 Q 85.43 -13.79 85.43 -11.24 L 85.43 -11.24 L 85.43 -7.86 L 87.2 -7.86 L 87.2 -11.66 Q 87.2 -15.41 82.58 -15.41 Q 77.95 -15.41 77.95 -11.66 L 77.95 -11.66 L 77.95 -3.29 Q 77.95 0.46 82.58 0.46 Q 87.2 0.46 87.2 -3.29 L 87.2 -3.29 L 87.2 -3.86 L 88.4 -3.86 L 88.4 -3.29 Q 88.4 -1.01 86.95 0.24 Q 85.5 1.49 82.6 1.49 Q 79.7 1.49 78.23 0.24 Q 76.76 -1.01 76.76 -3.29 Z M 81.02 -5.47 L 81.02 -3.64 Q 81.02 -2.37 82.49 -2.37 Q 83.96 -2.37 83.96 -3.66 L 83.96 -3.66 L 83.96 -6.69 L 82.07 -6.69 Q 81.02 -6.69 81.02 -5.47 L 81.02 -5.47 Z M 99.27 0 L 93.45 0 L 93.45 -14.95 L 95.05 -14.95 L 95.05 -1.38 L 99.27 -1.38 L 99.27 0 Z M 101.67 -2.88 L 101.67 -2.88 L 101.67 -12.07 Q 101.67 -13.61 102.65 -14.45 Q 103.62 -15.3 105.57 -15.3 Q 107.51 -15.3 108.5 -14.45 Q 109.49 -13.61 109.49 -12.07 L 109.49 -12.07 L 109.49 -2.88 Q 109.49 -1.34 108.51 -0.49 Q 107.53 0.35 105.59 0.35 Q 103.65 0.35 102.66 -0.49 Q 101.67 -1.34 101.67 -2.88 Z M 103.28 -12.07 L 103.28 -2.88 Q 103.28 -1.03 105.58 -1.03 Q 107.88 -1.03 107.88 -2.88 L 107.88 -2.88 L 107.88 -12.07 Q 107.88 -13.91 105.58 -13.91 Q 103.28 -13.91 103.28 -12.07 L 103.28 -12.07 Z M 113.39 -2.88 L 113.39 -2.88 L 113.39 -12.07 Q 113.39 -13.61 114.34 -14.45 Q 115.28 -15.3 117.17 -15.3 Q 119.05 -15.3 120.02 -14.45 Q 120.99 -13.61 120.99 -12.07 L 120.99 -12.07 L 120.99 -10.81 L 119.38 -10.81 L 119.38 -12.07 Q 119.38 -13.91 117.19 -13.91 Q 115 -13.91 115 -12.07 L 115 -12.07 L 115 -2.88 Q 115 -1.03 117.19 -1.03 Q 119.38 -1.03 119.38 -2.88 L 119.38 -2.88 L 119.38 -6.21 L 116.8 -6.21 L 116.8 -7.59 L 120.99 -7.59 L 120.99 -2.88 Q 120.99 -1.34 120.04 -0.49 Q 119.1 0.35 117.21 0.35 Q 115.33 0.35 114.36 -0.49 Q 113.39 -1.34 113.39 -2.88 Z M 128.95 0 L 125.24 0 L 125.24 -14.95 L 128.71 -14.95 Q 130.51 -14.95 131.44 -14.1 Q 132.37 -13.25 132.37 -11.72 L 132.37 -11.72 L 132.37 -10.35 Q 132.37 -8.4 130.73 -7.84 L 130.73 -7.84 Q 132.6 -7.33 132.6 -5.29 L 132.6 -5.29 L 132.6 -3.22 Q 132.6 -1.68 131.68 -0.84 Q 130.76 0 128.95 0 L 128.95 0 Z M 126.85 -7.24 L 126.85 -1.38 L 128.95 -1.38 Q 130.99 -1.38 130.99 -3.22 L 130.99 -3.22 L 130.99 -5.29 Q 130.99 -6.17 130.46 -6.7 Q 129.94 -7.24 128.95 -7.24 L 128.95 -7.24 L 126.85 -7.24 Z M 126.85 -13.57 L 126.85 -8.4 L 128.71 -8.4 Q 129.72 -8.4 130.24 -8.93 Q 130.76 -9.46 130.76 -10.35 L 130.76 -10.35 L 130.76 -11.72 Q 130.76 -12.6 130.23 -13.08 Q 129.7 -13.57 128.71 -13.57 L 128.71 -13.57 L 126.85 -13.57 Z M 138.46 0 L 136.85 0 L 136.85 -14.95 L 138.46 -14.95 L 138.46 0 Z M 144.66 0 L 143.05 0 L 143.05 -14.95 L 143.74 -14.95 L 144.31 -13.45 Q 145.41 -15.3 147.38 -15.3 L 147.38 -15.3 Q 150.76 -15.3 150.76 -12.07 L 150.76 -12.07 L 150.76 0 L 149.15 0 L 149.15 -12.07 Q 149.15 -12.95 148.77 -13.43 Q 148.39 -13.91 147.38 -13.91 Q 146.37 -13.91 145.51 -13.13 Q 144.66 -12.35 144.66 -11.61 L 144.66 -11.61 L 144.66 0 Z M 154.67 -2.88 L 154.67 -2.88 L 154.67 -5.18 Q 154.67 -8.4 157.98 -8.4 L 157.98 -8.4 L 160.64 -8.4 L 160.64 -12.16 Q 160.64 -12.99 160.11 -13.45 Q 159.58 -13.91 158.55 -13.91 L 158.55 -13.91 Q 156.51 -13.91 156.51 -12.16 L 156.51 -12.16 L 156.51 -10.81 L 154.89 -10.81 L 154.89 -12.07 Q 154.89 -13.61 155.8 -14.45 Q 156.71 -15.3 158.55 -15.3 Q 160.39 -15.3 161.33 -14.45 Q 162.26 -13.61 162.26 -12.07 L 162.26 -12.07 L 162.26 0 L 161.56 0 L 160.97 -1.47 Q 160.48 -0.64 159.7 -0.15 Q 158.92 0.35 157.98 0.35 L 157.98 0.35 Q 154.67 0.35 154.67 -2.88 Z M 156.27 -5.18 L 156.27 -2.88 Q 156.27 -2 156.64 -1.52 Q 157.01 -1.03 157.98 -1.03 Q 158.94 -1.03 159.77 -1.78 Q 160.6 -2.53 160.64 -3.27 L 160.64 -3.27 L 160.64 -7.02 L 157.98 -7.02 Q 157.01 -7.02 156.64 -6.54 Q 156.27 -6.05 156.27 -5.18 L 156.27 -5.18 Z M 168.23 0 L 166.63 0 L 166.63 -14.95 L 167.31 -14.95 L 167.99 -13.25 Q 168.73 -15.3 170.33 -15.3 L 170.33 -15.3 Q 173.07 -15.3 173.06 -12.31 L 173.06 -12.31 L 173.06 -10.81 L 171.52 -10.81 L 171.52 -12.4 Q 171.52 -13.91 170.25 -13.91 L 170.25 -13.91 Q 169.49 -13.91 168.86 -13.04 Q 168.23 -12.16 168.23 -10.51 L 168.23 -10.51 L 168.23 0 Z M 175.02 -7.4 L 175.02 -7.4 L 175.02 -14.95 L 176.62 -14.95 L 176.62 -7.4 Q 176.62 -5.56 178.91 -5.56 L 178.91 -5.56 Q 178.91 -5.56 178.92 -5.57 L 178.92 -5.57 Q 181.23 -5.57 181.23 -7.4 L 181.23 -7.4 L 181.23 -14.95 L 182.83 -14.95 L 182.83 -7.4 Q 182.83 -4.57 179.75 -4.23 L 179.75 -4.23 L 179.75 0 L 178.15 0 L 178.15 -4.23 Q 175.02 -4.58 175.02 -7.4 Z M 188.35 0 L 186.28 0 L 186.28 -2.53 L 188.35 -2.53 L 188.35 0 Z M 192.25 -2.88 L 192.25 -2.88 L 192.25 -12.07 Q 192.25 -13.61 193.2 -14.45 Q 194.14 -15.3 196.03 -15.3 Q 197.91 -15.3 198.88 -14.45 Q 199.85 -13.61 199.85 -12.07 L 199.85 -12.07 L 199.85 -9.89 L 198.24 -9.89 L 198.24 -12.07 Q 198.24 -13.91 196.05 -13.91 Q 193.86 -13.91 193.86 -12.07 L 193.86 -12.07 L 193.86 -2.88 Q 193.86 -1.03 196.05 -1.03 Q 198.24 -1.03 198.24 -2.88 L 198.24 -2.88 L 198.24 -4.14 L 199.85 -4.14 L 199.85 -2.88 Q 199.85 -1.34 198.9 -0.49 Q 197.96 0.35 196.07 0.35 Q 194.19 0.35 193.22 -0.49 Q 192.25 -1.34 192.25 -2.88 Z M 203.52 -2.88 L 203.52 -2.88 L 203.52 -12.07 Q 203.52 -13.61 204.5 -14.45 Q 205.47 -15.3 207.42 -15.3 Q 209.36 -15.3 210.35 -14.45 Q 211.33 -13.61 211.33 -12.07 L 211.33 -12.07 L 211.33 -2.88 Q 211.33 -1.34 210.36 -0.49 Q 209.38 0.35 207.44 0.35 Q 205.5 0.35 204.51 -0.49 Q 203.52 -1.34 203.52 -2.88 Z M 205.12 -12.07 L 205.12 -2.88 Q 205.12 -1.03 207.43 -1.03 Q 209.73 -1.03 209.73 -2.88 L 209.73 -2.88 L 209.73 -12.07 Q 209.73 -13.91 207.43 -13.91 Q 205.12 -13.91 205.12 -12.07 L 205.12 -12.07 Z M 217.2 0 L 215.59 0 L 215.59 -14.95 L 216.28 -14.95 L 216.85 -13.48 Q 217.33 -14.31 218.12 -14.8 Q 218.9 -15.3 219.83 -15.3 L 219.83 -15.3 Q 222.15 -15.3 222.79 -13.61 L 222.79 -13.61 Q 223.89 -15.3 225.69 -15.3 L 225.69 -15.3 Q 228.93 -15.3 228.93 -12.07 L 228.93 -12.07 L 228.93 0 L 227.32 0 L 227.32 -12.07 Q 227.32 -13.91 225.67 -13.91 L 225.67 -13.91 Q 224.7 -13.91 223.88 -13.13 Q 223.06 -12.35 223.06 -11.61 L 223.06 -11.61 L 223.06 0 L 221.45 0 L 221.45 -12.07 Q 221.45 -13.91 219.8 -13.91 L 219.8 -13.91 Q 218.84 -13.91 218.02 -13.17 Q 217.2 -12.42 217.2 -11.68 L 217.2 -11.68 L 217.2 0 Z" stroke-linecap="round" />
</g>
<g transform="matrix(1.5058927792825052 0 0 1.5058927792825052 274.1546740473768 465.83407467531384)" id="tagline-fa96e0de-1c7c-4c54-93d4-508322e5bc46-logo-path"  >
<path style="stroke: none; stroke-width: 0; stroke-dasharray: none; stroke-linecap: butt; stroke-dashoffset: 0; stroke-linejoin: miter; stroke-miterlimit: 4; fill: rgb(12,60,100); fill-rule: nonzero; opacity: 1;"  paint-order="stroke"  transform=" translate(-99.13, 7.4750000000000005)" d="M 2.07 -2.88 L 2.07 -2.88 L 2.07 -14.95 L 3.68 -14.95 L 3.68 -2.88 Q 3.68 -1.03 5.81 -1.03 Q 7.94 -1.03 7.94 -2.88 L 7.94 -2.88 L 7.94 -14.95 L 9.55 -14.95 L 9.55 -2.88 Q 9.55 -1.03 11.67 -1.03 Q 13.8 -1.03 13.8 -2.88 L 13.8 -2.88 L 13.8 -14.95 L 15.41 -14.95 L 15.41 -2.88 Q 15.41 -1.36 14.44 -0.51 Q 13.48 0.35 11.58 0.35 Q 9.68 0.35 8.74 -0.99 L 8.74 -0.99 Q 7.84 0.35 5.92 0.35 Q 4 0.35 3.03 -0.51 Q 2.07 -1.36 2.07 -2.88 Z M 19.54 -2.88 L 19.54 -2.88 L 19.54 -14.95 L 21.16 -14.95 L 21.16 -2.88 Q 21.16 -1.03 23.29 -1.03 Q 25.41 -1.03 25.41 -2.88 L 25.41 -2.88 L 25.41 -14.95 L 27.02 -14.95 L 27.02 -2.88 Q 27.02 -1.03 29.15 -1.03 Q 31.28 -1.03 31.28 -2.88 L 31.28 -2.88 L 31.28 -14.95 L 32.88 -14.95 L 32.88 -2.88 Q 32.88 -1.36 31.92 -0.51 Q 30.95 0.35 29.05 0.35 Q 27.16 0.35 26.21 -0.99 L 26.21 -0.99 Q 25.31 0.35 23.39 0.35 Q 21.47 0.35 20.51 -0.51 Q 19.54 -1.36 19.54 -2.88 Z M 37.02 -2.88 L 37.02 -2.88 L 37.02 -14.95 L 38.63 -14.95 L 38.63 -2.88 Q 38.63 -1.03 40.76 -1.03 Q 42.89 -1.03 42.89 -2.88 L 42.89 -2.88 L 42.89 -14.95 L 44.5 -14.95 L 44.5 -2.88 Q 44.5 -1.03 46.62 -1.03 Q 48.75 -1.03 48.75 -2.88 L 48.75 -2.88 L 48.75 -14.95 L 50.36 -14.95 L 50.36 -2.88 Q 50.36 -1.36 49.39 -0.51 Q 48.43 0.35 46.53 0.35 Q 44.63 0.35 43.69 -0.99 L 43.69 -0.99 Q 42.79 0.35 40.87 0.35 Q 38.95 0.35 37.98 -0.51 Q 37.02 -1.36 37.02 -2.88 Z M 56.44 0 L 54.38 0 L 54.38 -2.53 L 56.44 -2.53 L 56.44 0 Z M 66.52 0 L 60.7 0 L 60.7 -14.95 L 62.31 -14.95 L 62.31 -1.38 L 66.52 -1.38 L 66.52 0 Z M 68.92 -2.88 L 68.92 -2.88 L 68.92 -12.07 Q 68.92 -13.61 69.9 -14.45 Q 70.88 -15.3 72.82 -15.3 Q 74.76 -15.3 75.75 -14.45 Q 76.74 -13.61 76.74 -12.07 L 76.74 -12.07 L 76.74 -2.88 Q 76.74 -1.34 75.76 -0.49 Q 74.78 0.35 72.84 0.35 Q 70.9 0.35 69.91 -0.49 Q 68.92 -1.34 68.92 -2.88 Z M 70.53 -12.07 L 70.53 -2.88 Q 70.53 -1.03 72.83 -1.03 Q 75.13 -1.03 75.13 -2.88 L 75.13 -2.88 L 75.13 -12.07 Q 75.13 -13.91 72.83 -13.91 Q 70.53 -13.91 70.53 -12.07 L 70.53 -12.07 Z M 80.65 -2.88 L 80.65 -2.88 L 80.65 -12.07 Q 80.65 -13.61 81.59 -14.45 Q 82.53 -15.3 84.42 -15.3 Q 86.31 -15.3 87.27 -14.45 Q 88.24 -13.61 88.24 -12.07 L 88.24 -12.07 L 88.24 -10.81 L 86.63 -10.81 L 86.63 -12.07 Q 86.63 -13.91 84.44 -13.91 Q 82.25 -13.91 82.25 -12.07 L 82.25 -12.07 L 82.25 -2.88 Q 82.25 -1.03 84.44 -1.03 Q 86.63 -1.03 86.63 -2.88 L 86.63 -2.88 L 86.63 -6.21 L 84.05 -6.21 L 84.05 -7.59 L 88.24 -7.59 L 88.24 -2.88 Q 88.24 -1.34 87.29 -0.49 Q 86.35 0.35 84.46 0.35 Q 82.58 0.35 81.61 -0.49 Q 80.65 -1.34 80.65 -2.88 Z M 96.2 0 L 92.49 0 L 92.49 -14.95 L 95.96 -14.95 Q 97.76 -14.95 98.69 -14.1 Q 99.63 -13.25 99.63 -11.72 L 99.63 -11.72 L 99.63 -10.35 Q 99.63 -8.4 97.99 -7.84 L 97.99 -7.84 Q 99.85 -7.33 99.85 -5.29 L 99.85 -5.29 L 99.85 -3.22 Q 99.85 -1.68 98.93 -0.84 Q 98.01 0 96.2 0 L 96.2 0 Z M 94.1 -7.24 L 94.1 -1.38 L 96.2 -1.38 Q 98.24 -1.38 98.24 -3.22 L 98.24 -3.22 L 98.24 -5.29 Q 98.24 -6.17 97.72 -6.7 Q 97.19 -7.24 96.2 -7.24 L 96.2 -7.24 L 94.1 -7.24 Z M 94.1 -13.57 L 94.1 -8.4 L 95.96 -8.4 Q 96.98 -8.4 97.49 -8.93 Q 98.01 -9.46 98.01 -10.35 L 98.01 -10.35 L 98.01 -11.72 Q 98.01 -12.6 97.48 -13.08 Q 96.95 -13.57 95.96 -13.57 L 95.96 -13.57 L 94.1 -13.57 Z M 105.71 0 L 104.11 0 L 104.11 -14.95 L 105.71 -14.95 L 105.71 0 Z M 111.91 0 L 110.31 0 L 110.31 -14.95 L 110.99 -14.95 L 111.56 -13.45 Q 112.66 -15.3 114.63 -15.3 L 114.63 -15.3 Q 118.01 -15.3 118.01 -12.07 L 118.01 -12.07 L 118.01 0 L 116.4 0 L 116.4 -12.07 Q 116.4 -12.95 116.02 -13.43 Q 115.64 -13.91 114.63 -13.91 Q 113.62 -13.91 112.77 -13.13 Q 111.91 -12.35 111.91 -11.61 L 111.91 -11.61 L 111.91 0 Z M 121.92 -2.88 L 121.92 -2.88 L 121.92 -5.18 Q 121.92 -8.4 125.23 -8.4 L 125.23 -8.4 L 127.89 -8.4 L 127.89 -12.16 Q 127.89 -12.99 127.36 -13.45 Q 126.84 -13.91 125.8 -13.91 L 125.8 -13.91 Q 123.76 -13.91 123.76 -12.16 L 123.76 -12.16 L 123.76 -10.81 L 122.14 -10.81 L 122.14 -12.07 Q 122.14 -13.61 123.05 -14.45 Q 123.96 -15.3 125.8 -15.3 Q 127.65 -15.3 128.58 -14.45 Q 129.51 -13.61 129.51 -12.07 L 129.51 -12.07 L 129.51 0 L 128.81 0 L 128.22 -1.47 Q 127.74 -0.64 126.95 -0.15 Q 126.17 0.35 125.23 0.35 L 125.23 0.35 Q 121.92 0.35 121.92 -2.88 Z M 123.52 -5.18 L 123.52 -2.88 Q 123.52 -2 123.89 -1.52 Q 124.27 -1.03 125.23 -1.03 Q 126.2 -1.03 127.02 -1.78 Q 127.85 -2.53 127.89 -3.27 L 127.89 -3.27 L 127.89 -7.02 L 125.23 -7.02 Q 124.27 -7.02 123.89 -6.54 Q 123.52 -6.05 123.52 -5.18 L 123.52 -5.18 Z M 135.48 0 L 133.88 0 L 133.88 -14.95 L 134.56 -14.95 L 135.24 -13.25 Q 135.98 -15.3 137.58 -15.3 L 137.58 -15.3 Q 140.32 -15.3 140.31 -12.31 L 140.31 -12.31 L 140.31 -10.81 L 138.77 -10.81 L 138.77 -12.4 Q 138.77 -13.91 137.51 -13.91 L 137.51 -13.91 Q 136.74 -13.91 136.11 -13.04 Q 135.48 -12.16 135.48 -10.51 L 135.48 -10.51 L 135.48 0 Z M 142.27 -7.4 L 142.27 -7.4 L 142.27 -14.95 L 143.87 -14.95 L 143.87 -7.4 Q 143.87 -5.56 146.16 -5.56 L 146.16 -5.56 Q 146.16 -5.56 146.18 -5.57 L 146.18 -5.57 Q 148.48 -5.57 148.48 -7.4 L 148.48 -7.4 L 148.48 -14.95 L 150.08 -14.95 L 150.08 -7.4 Q 150.08 -4.57 147.01 -4.23 L 147.01 -4.23 L 147.01 0 L 145.4 0 L 145.4 -4.23 Q 142.27 -4.58 142.27 -7.4 Z M 155.6 0 L 153.53 0 L 153.53 -2.53 L 155.6 -2.53 L 155.6 0 Z M 159.51 -2.88 L 159.51 -2.88 L 159.51 -12.07 Q 159.51 -13.61 160.45 -14.45 Q 161.39 -15.3 163.28 -15.3 Q 165.17 -15.3 166.13 -14.45 Q 167.1 -13.61 167.1 -12.07 L 167.1 -12.07 L 167.1 -9.89 L 165.49 -9.89 L 165.49 -12.07 Q 165.49 -13.91 163.3 -13.91 Q 161.11 -13.91 161.11 -12.07 L 161.11 -12.07 L 161.11 -2.88 Q 161.11 -1.03 163.3 -1.03 Q 165.49 -1.03 165.49 -2.88 L 165.49 -2.88 L 165.49 -4.14 L 167.1 -4.14 L 167.1 -2.88 Q 167.1 -1.34 166.15 -0.49 Q 165.21 0.35 163.32 0.35 Q 161.44 0.35 160.47 -0.49 Q 159.51 -1.34 159.51 -2.88 Z M 170.77 -2.88 L 170.77 -2.88 L 170.77 -12.07 Q 170.77 -13.61 171.75 -14.45 Q 172.72 -15.3 174.67 -15.3 Q 176.61 -15.3 177.6 -14.45 Q 178.59 -13.61 178.59 -12.07 L 178.59 -12.07 L 178.59 -2.88 Q 178.59 -1.34 177.61 -0.49 Q 176.63 0.35 174.69 0.35 Q 172.75 0.35 171.76 -0.49 Q 170.77 -1.34 170.77 -2.88 Z M 172.38 -12.07 L 172.38 -2.88 Q 172.38 -1.03 174.68 -1.03 Q 176.98 -1.03 176.98 -2.88 L 176.98 -2.88 L 176.98 -12.07 Q 176.98 -13.91 174.68 -13.91 Q 172.38 -13.91 172.38 -12.07 L 172.38 -12.07 Z M 184.45 0 L 182.84 0 L 182.84 -14.95 L 183.53 -14.95 L 184.1 -13.48 Q 184.58 -14.31 185.37 -14.8 Q 186.16 -15.3 187.08 -15.3 L 187.08 -15.3 Q 189.4 -15.3 190.04 -13.61 L 190.04 -13.61 Q 191.14 -15.3 192.94 -15.3 L 192.94 -15.3 Q 196.19 -15.3 196.19 -12.07 L 196.19 -12.07 L 196.19 0 L 194.57 0 L 194.57 -12.07 Q 194.57 -13.91 192.92 -13.91 L 192.92 -13.91 Q 191.95 -13.91 191.13 -13.13 Q 190.31 -12.35 190.31 -11.61 L 190.31 -11.61 L 190.31 0 L 188.71 0 L 188.71 -12.07 Q 188.71 -13.91 187.05 -13.91 L 187.05 -13.91 Q 186.09 -13.91 185.27 -13.17 Q 184.45 -12.42 184.45 -11.68 L 184.45 -11.68 L 184.45 0 Z" stroke-linecap="round" />
</g>
<g transform="matrix(0.5235873355659172 0 0 0.5235873355659172 781.5193153322898 299.6753845369306)" id="maker-logo"  >
<g style=""  paint-order="stroke"   >
		<g transform="matrix(0.998080614203455 0 0 0.998080614203455 -5.684342e-14 0)" id="background-logo"  >
<rect style="stroke: none; stroke-width: 1; stroke-dasharray: none; stroke-linecap: butt; stroke-dashoffset: 0; stroke-linejoin: miter; stroke-miterlimit: 4; fill: rgb(12,60,100); fill-rule: nonzero; opacity: 0; visibility: hidden;"  paint-order="stroke"  x="-325" y="-260" rx="0" ry="0" width="650" height="520" />
</g>
		<g transform="matrix(1 0 0 1 1.7224999999999433 102.60674653955786)" id="text-logo-path"  >
<path style="stroke: none; stroke-width: 0; stroke-dasharray: none; stroke-linecap: butt; stroke-dashoffset: 0; stroke-linejoin: miter; stroke-miterlimit: 4; fill: rgb(255,222,89); fill-rule: nonzero; opacity: 1;"  paint-order="stroke"  transform=" translate(-147.525, 18.55)" d="M 4.24 0 L 4.24 -37.1 L 8.27 -37.1 L 8.27 -3.55 L 27.14 -3.55 L 27.14 0 L 4.24 0 Z M 37.21 0 L 31.38 -5.83 L 31.38 -31.27 L 37.21 -37.1 L 53.95 -37.1 L 59.78 -31.27 L 59.78 -5.83 L 53.95 0 L 37.21 0 Z M 39.01 -3.6 L 52.15 -3.6 L 55.76 -7.15 L 55.76 -29.95 L 52.15 -33.5 L 39.01 -33.5 L 35.4 -29.95 L 35.4 -7.15 L 39.01 -3.6 Z M 73.03 0 L 67.2 -5.83 L 67.2 -31.27 L 73.03 -37.1 L 89.25 -37.1 L 94.87 -31.48 L 94.87 -28.09 L 90.84 -28.09 L 90.84 -30.16 L 87.45 -33.5 L 74.84 -33.5 L 71.23 -29.95 L 71.23 -7.15 L 74.84 -3.6 L 87.24 -3.6 L 90.84 -7.15 L 90.84 -15.74 L 82.47 -15.74 L 82.47 -19.34 L 94.87 -19.34 L 94.87 -5.83 L 89.04 0 L 73.03 0 Z M 115.22 0 L 115.22 -37.1 L 136.05 -37.1 L 140.93 -32.22 L 140.93 -21.94 L 138.38 -19.4 L 142.57 -15.21 L 142.57 -5.19 L 137.38 0 L 115.22 0 Z M 119.14 -20.35 L 134.35 -20.35 L 137 -23 L 137 -31 L 134.35 -33.6 L 119.14 -33.6 L 119.14 -20.35 Z M 119.14 -3.5 L 135.57 -3.5 L 138.65 -6.52 L 138.65 -13.94 L 135.57 -16.96 L 119.14 -16.96 L 119.14 -3.5 Z M 149.72 0 L 149.72 -37.1 L 153.75 -37.1 L 153.75 0 L 149.72 0 Z M 162.5 0 L 162.5 -37.1 L 166.42 -37.1 L 185.76 -6.57 L 185.87 -6.57 L 185.87 -37.1 L 189.69 -37.1 L 189.69 0 L 185.76 0 L 166.42 -30.53 L 166.31 -30.53 L 166.31 0 L 162.5 0 Z M 194.99 0 L 208.18 -37.1 L 212.53 -37.1 L 225.73 0 L 221.54 0 L 218.09 -10.02 L 202.62 -10.02 L 199.17 0 L 194.99 0 Z M 203.84 -13.51 L 216.93 -13.51 L 210.41 -32.44 L 210.3 -32.44 L 203.84 -13.51 Z M 252.81 -16.22 L 257.31 -11.34 L 257.31 0 L 253.29 0 L 253.29 -10.23 L 248.2 -15.58 L 235.05 -15.58 L 235.05 0 L 231.03 0 L 231.03 -37.1 L 252.23 -37.1 L 257.1 -32.22 L 257.1 -20.51 L 252.81 -16.22 Z M 235.05 -33.6 L 235.05 -19.08 L 250.48 -19.08 L 253.13 -21.68 L 253.13 -31 L 250.48 -33.6 L 235.05 -33.6 Z M 273.9 0 L 273.9 -15.48 L 261.02 -37.1 L 265.37 -37.1 L 275.86 -19.13 L 275.97 -19.13 L 286.46 -37.1 L 290.81 -37.1 L 277.93 -15.48 L 277.93 0 L 273.9 0 Z" stroke-linecap="round" />
</g>
		<g transform="matrix(1 0 0 1 -0.6512919311129508 145.52217895968252)" id="tagline-678f1e48-0e31-4053-bfa7-94fb3aa20cb5-logo-path"  >
<linearGradient id="SVGID_9_10_11_12_13_14_15_16_17_18_19_20_21_22_23_24_25_26_27_28_29_30_31_32_33_34_35_36_37_38_39_40_41_42_43_44_45_46_47_48_49_50_51_52_53_54_55_56_57_58_59_60_61_62_63_64_65_66_67_68_69_70_71_72_73_74_75_76_77_78_79_80_81_82_83_84_85_86_13_9_9_9_9_17_18_19_20_21_22_23_24_25_5_10_11_12_13_14_15_16_17_18_19_461416" gradientUnits="userSpaceOnUse" gradientTransform="matrix(1 0 0 1 1.240000000000009 -12.77)"  x1="0" y1="0" x2="0" y2="44">
<stop offset="0%" style="stop-color:rgb(248,77,158);stop-opacity: 1"/>
<stop offset="100%" style="stop-color:rgb(255,116,117);stop-opacity: 1"/>
</linearGradient>
<path style="stroke: none; stroke-width: 0; stroke-dasharray: none; stroke-linecap: butt; stroke-dashoffset: 0; stroke-linejoin: miter; stroke-miterlimit: 4; fill: url(#SVGID_9_10_11_12_13_14_15_16_17_18_19_20_21_22_23_24_25_26_27_28_29_30_31_32_33_34_35_36_37_38_39_40_41_42_43_44_45_46_47_48_49_50_51_52_53_54_55_56_57_58_59_60_61_62_63_64_65_66_67_68_69_70_71_72_73_74_75_76_77_78_79_80_81_82_83_84_85_86_13_9_9_9_9_17_18_19_20_21_22_23_24_25_5_10_11_12_13_14_15_16_17_18_19_461416); fill-rule: nonzero; opacity: 1;"  paint-order="stroke"  transform=" translate(-145.89000000000001, 4.4399999999999995)" d="M 1.24 -1.09 L 1.24 -1.09 L 1.24 -10.82 Q 1.24 -11.04 1.32 -11.24 Q 1.4 -11.44 1.55 -11.59 Q 1.69 -11.74 1.89 -11.82 Q 2.09 -11.9 2.32 -11.9 L 2.32 -11.9 L 9.55 -11.9 Q 9.94 -11.9 10.4 -11.76 Q 10.86 -11.62 11.25 -11.31 Q 11.65 -11 11.91 -10.5 Q 12.17 -10 12.17 -9.28 L 12.17 -9.28 L 12.17 -8.87 Q 12.17 -8.3 11.98 -7.64 Q 11.79 -6.98 11.36 -6.39 L 11.36 -6.39 Q 11.73 -6.17 12.05 -5.85 Q 12.37 -5.54 12.61 -5.12 Q 12.85 -4.71 12.99 -4.18 Q 13.13 -3.66 13.13 -3.03 L 13.13 -3.03 L 13.13 -2.61 Q 13.13 -2.22 12.99 -1.76 Q 12.86 -1.3 12.55 -0.91 Q 12.24 -0.52 11.74 -0.26 Q 11.24 0 10.52 0 L 10.52 0 L 2.32 0 Q 2.09 0 1.89 -0.08 Q 1.69 -0.17 1.55 -0.31 Q 1.4 -0.46 1.32 -0.66 Q 1.24 -0.85 1.24 -1.09 Z M 3.4 -9.75 L 3.4 -2.16 L 10.52 -2.16 Q 10.58 -2.16 10.66 -2.17 Q 10.74 -2.17 10.81 -2.22 Q 10.87 -2.26 10.92 -2.36 Q 10.97 -2.46 10.97 -2.63 L 10.97 -2.63 L 10.97 -3.03 Q 10.97 -3.45 10.84 -3.79 Q 10.71 -4.13 10.47 -4.37 Q 10.23 -4.61 9.89 -4.74 Q 9.55 -4.86 9.12 -4.86 L 9.12 -4.86 L 4.26 -4.86 L 4.26 -7.04 L 8.15 -7.04 Q 8.57 -7.04 8.92 -7.17 Q 9.26 -7.3 9.5 -7.54 Q 9.74 -7.78 9.87 -8.11 Q 9.99 -8.45 9.99 -8.87 L 9.99 -8.87 L 9.99 -9.28 Q 9.99 -9.75 9.55 -9.75 L 9.55 -9.75 L 3.4 -9.75 Z M 14.63 -3.99 L 14.63 -3.99 L 14.63 -8.97 L 16.79 -8.97 L 16.79 -3.99 Q 16.79 -3.57 16.94 -3.23 Q 17.08 -2.9 17.33 -2.66 Q 17.58 -2.42 17.92 -2.29 Q 18.25 -2.16 18.64 -2.16 L 18.64 -2.16 L 22.42 -2.16 L 22.42 -8.97 L 24.58 -8.97 L 24.58 -1.09 Q 24.58 -0.85 24.5 -0.66 Q 24.41 -0.46 24.27 -0.31 Q 24.12 -0.17 23.93 -0.08 Q 23.73 0 23.51 0 L 23.51 0 L 18.63 0 Q 18.23 0 17.78 -0.09 Q 17.32 -0.18 16.88 -0.39 Q 16.44 -0.59 16.03 -0.9 Q 15.62 -1.21 15.31 -1.66 Q 15.01 -2.1 14.82 -2.68 Q 14.63 -3.26 14.63 -3.99 Z M 28.8 0 L 26.64 0 L 26.64 -8.97 L 28.8 -8.97 L 28.8 0 Z M 28.8 -10.82 L 26.64 -10.82 L 26.64 -12.77 L 28.8 -12.77 L 28.8 -10.82 Z M 30.81 -3.03 L 30.81 -3.03 L 30.81 -12.77 L 32.97 -12.77 L 32.97 -3.03 Q 32.97 -2.63 33.22 -2.39 Q 33.47 -2.16 33.84 -2.16 L 33.84 -2.16 L 34.81 -2.16 L 34.81 0 L 33.84 0 Q 33.38 0 32.85 -0.16 Q 32.32 -0.32 31.87 -0.68 Q 31.41 -1.04 31.11 -1.61 Q 30.81 -2.19 30.81 -3.03 Z M 36.09 -3.03 L 36.09 -3.03 L 36.09 -5.95 Q 36.09 -6.78 36.39 -7.36 Q 36.7 -7.94 37.15 -8.3 Q 37.6 -8.66 38.13 -8.82 Q 38.67 -8.97 39.11 -8.97 L 39.11 -8.97 L 43.01 -8.97 L 43.01 -6.81 L 39.13 -6.81 Q 38.7 -6.81 38.47 -6.59 Q 38.25 -6.38 38.25 -5.95 L 38.25 -5.95 L 38.25 -3.05 Q 38.25 -2.61 38.47 -2.38 Q 38.69 -2.16 39.11 -2.16 L 39.11 -2.16 L 43.01 -2.16 Q 43.45 -2.16 43.66 -2.38 Q 43.88 -2.61 43.88 -3.03 L 43.88 -3.03 L 43.88 -12.77 L 46.04 -12.77 L 46.04 -3.03 Q 46.04 -2.47 45.9 -2.03 Q 45.75 -1.59 45.52 -1.25 Q 45.29 -0.91 44.98 -0.68 Q 44.67 -0.44 44.34 -0.29 Q 44 -0.14 43.66 -0.07 Q 43.31 0 43.01 0 L 43.01 0 L 39.11 0 Q 38.56 0 38.12 -0.14 Q 37.68 -0.28 37.34 -0.52 Q 37 -0.76 36.77 -1.06 Q 36.53 -1.37 36.38 -1.71 Q 36.23 -2.04 36.16 -2.39 Q 36.09 -2.73 36.09 -3.03 Z M 50.29 0 L 48.13 0 L 48.13 -8.97 L 50.29 -8.97 L 50.29 0 Z M 50.29 -10.82 L 48.13 -10.82 L 48.13 -12.77 L 50.29 -12.77 L 50.29 -10.82 Z M 54.51 0 L 52.35 0 L 52.35 -7.9 Q 52.35 -8.13 52.44 -8.32 Q 52.52 -8.52 52.67 -8.66 Q 52.82 -8.81 53.02 -8.89 Q 53.22 -8.97 53.44 -8.97 L 53.44 -8.97 L 58.3 -8.97 Q 58.71 -8.97 59.16 -8.88 Q 59.62 -8.79 60.06 -8.59 Q 60.5 -8.38 60.91 -8.07 Q 61.31 -7.76 61.62 -7.32 Q 61.93 -6.87 62.11 -6.29 Q 62.3 -5.71 62.3 -4.98 L 62.3 -4.98 L 62.3 0 L 60.14 0 L 60.14 -4.98 Q 60.14 -5.4 59.99 -5.74 Q 59.85 -6.08 59.6 -6.32 Q 59.35 -6.56 59.01 -6.69 Q 58.68 -6.81 58.29 -6.81 L 58.29 -6.81 L 54.51 -6.81 L 54.51 0 Z M 64.01 -3.03 L 64.01 -3.03 L 64.01 -5.95 Q 64.01 -6.26 64.08 -6.6 Q 64.15 -6.94 64.3 -7.28 Q 64.45 -7.61 64.68 -7.92 Q 64.92 -8.23 65.26 -8.46 Q 65.59 -8.69 66.03 -8.83 Q 66.47 -8.97 67.03 -8.97 L 67.03 -8.97 L 70.92 -8.97 Q 71.23 -8.97 71.57 -8.9 Q 71.92 -8.83 72.25 -8.68 Q 72.59 -8.53 72.9 -8.3 Q 73.2 -8.06 73.44 -7.72 Q 73.67 -7.39 73.81 -6.95 Q 73.95 -6.51 73.95 -5.95 L 73.95 -5.95 L 73.95 0.86 Q 73.95 1.42 73.81 1.86 Q 73.67 2.31 73.44 2.64 Q 73.2 2.98 72.9 3.22 Q 72.59 3.45 72.25 3.6 Q 71.92 3.75 71.57 3.82 Q 71.23 3.89 70.92 3.89 L 70.92 3.89 L 67.03 3.89 L 67.03 1.73 L 70.92 1.73 Q 71.36 1.73 71.58 1.51 Q 71.79 1.29 71.79 0.86 L 71.79 0.86 L 71.79 -5.95 Q 71.79 -6.38 71.58 -6.59 Q 71.36 -6.81 70.92 -6.81 L 70.92 -6.81 L 67.03 -6.81 Q 66.63 -6.81 66.4 -6.57 Q 66.17 -6.33 66.17 -5.95 L 66.17 -5.95 L 66.17 -3.03 Q 66.17 -2.61 66.39 -2.38 Q 66.61 -2.16 67.05 -2.16 L 67.05 -2.16 L 70.92 -2.16 L 70.92 0 L 67.03 0 Q 66.72 0 66.38 -0.07 Q 66.04 -0.14 65.7 -0.29 Q 65.37 -0.44 65.06 -0.68 Q 64.75 -0.91 64.52 -1.25 Q 64.29 -1.59 64.15 -2.03 Q 64.01 -2.47 64.01 -3.03 Z M 83.65 0 L 81.49 0 L 81.49 -8.97 L 83.65 -8.97 L 83.65 0 Z M 83.65 -10.82 L 81.49 -10.82 L 81.49 -12.77 L 83.65 -12.77 L 83.65 -10.82 Z M 87.87 0 L 85.71 0 L 85.71 -7.9 Q 85.71 -8.13 85.8 -8.32 Q 85.88 -8.52 86.03 -8.66 Q 86.18 -8.81 86.38 -8.89 Q 86.58 -8.97 86.8 -8.97 L 86.8 -8.97 L 90.69 -8.97 Q 91.14 -8.97 91.66 -8.82 Q 92.17 -8.66 92.64 -8.31 L 92.64 -8.31 L 92.64 -8.97 L 95.56 -8.97 Q 95.87 -8.97 96.21 -8.9 Q 96.55 -8.83 96.88 -8.68 Q 97.22 -8.53 97.53 -8.3 Q 97.83 -8.06 98.07 -7.72 Q 98.3 -7.39 98.44 -6.95 Q 98.58 -6.51 98.58 -5.95 L 98.58 -5.95 L 98.58 0 L 96.42 0 L 96.42 -5.95 Q 96.42 -6.38 96.21 -6.59 Q 96 -6.81 95.56 -6.81 L 95.56 -6.81 L 93.62 -6.81 Q 93.72 -6.42 93.72 -5.95 L 93.72 -5.95 L 93.72 0 L 91.57 0 L 91.57 -5.95 Q 91.57 -6.38 91.34 -6.59 Q 91.12 -6.81 90.68 -6.81 L 90.68 -6.81 L 87.87 -6.81 L 87.87 0 Z M 99.99 -2.97 L 99.99 -2.97 Q 99.99 -3.42 100.15 -3.94 Q 100.31 -4.47 100.66 -4.91 Q 101.01 -5.35 101.58 -5.65 Q 102.15 -5.95 102.96 -5.95 L 102.96 -5.95 L 106.86 -5.95 L 106.86 -3.89 L 102.96 -3.89 Q 102.52 -3.89 102.28 -3.62 Q 102.04 -3.35 102.04 -2.96 L 102.04 -2.96 Q 102.04 -2.53 102.32 -2.3 Q 102.6 -2.06 102.98 -2.06 L 102.98 -2.06 L 106.86 -2.06 Q 107.3 -2.06 107.54 -2.32 Q 107.78 -2.59 107.78 -2.99 L 107.78 -2.99 L 107.78 -6 Q 107.78 -6.42 107.52 -6.67 Q 107.25 -6.92 106.86 -6.92 L 106.86 -6.92 L 102.12 -6.92 L 102.12 -8.97 L 106.86 -8.97 Q 107.3 -8.97 107.82 -8.82 Q 108.34 -8.66 108.79 -8.3 Q 109.23 -7.95 109.53 -7.38 Q 109.83 -6.81 109.83 -6 L 109.83 -6 L 109.83 -2.97 Q 109.83 -2.52 109.67 -2 Q 109.51 -1.49 109.16 -1.04 Q 108.81 -0.6 108.24 -0.3 Q 107.67 0 106.86 0 L 106.86 0 L 102.96 0 Q 102.51 0 102 -0.16 Q 101.48 -0.32 101.03 -0.67 Q 100.59 -1.02 100.29 -1.59 Q 99.99 -2.16 99.99 -2.97 Z M 111.49 -3.03 L 111.49 -3.03 L 111.49 -5.95 Q 111.49 -6.26 111.56 -6.6 Q 111.63 -6.94 111.78 -7.28 Q 111.93 -7.61 112.16 -7.92 Q 112.4 -8.23 112.74 -8.46 Q 113.07 -8.69 113.51 -8.83 Q 113.95 -8.97 114.51 -8.97 L 114.51 -8.97 L 118.4 -8.97 Q 118.71 -8.97 119.05 -8.9 Q 119.4 -8.83 119.73 -8.68 Q 120.07 -8.53 120.38 -8.3 Q 120.69 -8.06 120.92 -7.72 Q 121.15 -7.39 121.29 -6.95 Q 121.43 -6.51 121.43 -5.95 L 121.43 -5.95 L 121.43 0.86 Q 121.43 1.42 121.29 1.86 Q 121.15 2.31 120.92 2.64 Q 120.69 2.98 120.38 3.22 Q 120.07 3.45 119.73 3.6 Q 119.4 3.75 119.05 3.82 Q 118.71 3.89 118.4 3.89 L 118.4 3.89 L 114.51 3.89 L 114.51 1.73 L 118.4 1.73 Q 118.84 1.73 119.06 1.51 Q 119.27 1.29 119.27 0.86 L 119.27 0.86 L 119.27 -5.95 Q 119.27 -6.38 119.06 -6.59 Q 118.84 -6.81 118.4 -6.81 L 118.4 -6.81 L 114.51 -6.81 Q 114.11 -6.81 113.88 -6.57 Q 113.65 -6.33 113.65 -5.95 L 113.65 -5.95 L 113.65 -3.03 Q 113.65 -2.61 113.87 -2.38 Q 114.09 -2.16 114.53 -2.16 L 114.53 -2.16 L 118.4 -2.16 L 118.4 0 L 114.51 0 Q 114.2 0 113.86 -0.07 Q 113.52 -0.14 113.19 -0.29 Q 112.85 -0.44 112.54 -0.68 Q 112.23 -0.91 112 -1.25 Q 111.77 -1.59 111.63 -2.03 Q 111.49 -2.47 111.49 -3.03 Z M 125.6 0 L 123.44 0 L 123.44 -8.97 L 125.6 -8.97 L 125.6 0 Z M 125.6 -10.82 L 123.44 -10.82 L 123.44 -12.77 L 125.6 -12.77 L 125.6 -10.82 Z M 129.82 0 L 127.67 0 L 127.67 -7.9 Q 127.67 -8.13 127.75 -8.32 Q 127.83 -8.52 127.98 -8.66 Q 128.13 -8.81 128.33 -8.89 Q 128.53 -8.97 128.75 -8.97 L 128.75 -8.97 L 133.62 -8.97 Q 134.02 -8.97 134.48 -8.88 Q 134.93 -8.79 135.37 -8.59 Q 135.82 -8.38 136.22 -8.07 Q 136.62 -7.76 136.93 -7.32 Q 137.25 -6.87 137.43 -6.29 Q 137.61 -5.71 137.61 -4.98 L 137.61 -4.98 L 137.61 0 L 135.45 0 L 135.45 -4.98 Q 135.45 -5.4 135.31 -5.74 Q 135.16 -6.08 134.91 -6.32 Q 134.66 -6.56 134.33 -6.69 Q 133.99 -6.81 133.6 -6.81 L 133.6 -6.81 L 129.82 -6.81 L 129.82 0 Z M 138.93 -2.97 L 138.93 -2.97 Q 138.93 -3.42 139.09 -3.94 Q 139.25 -4.47 139.6 -4.91 Q 139.95 -5.35 140.52 -5.65 Q 141.09 -5.95 141.9 -5.95 L 141.9 -5.95 L 145.79 -5.95 L 145.79 -3.89 L 141.9 -3.89 Q 141.46 -3.89 141.22 -3.62 Q 140.98 -3.35 140.98 -2.96 L 140.98 -2.96 Q 140.98 -2.53 141.26 -2.3 Q 141.54 -2.06 141.92 -2.06 L 141.92 -2.06 L 145.79 -2.06 Q 146.23 -2.06 146.48 -2.32 Q 146.72 -2.59 146.72 -2.99 L 146.72 -2.99 L 146.72 -6 Q 146.72 -6.42 146.45 -6.67 Q 146.19 -6.92 145.79 -6.92 L 145.79 -6.92 L 141.06 -6.92 L 141.06 -8.97 L 145.79 -8.97 Q 146.24 -8.97 146.76 -8.82 Q 147.28 -8.66 147.72 -8.3 Q 148.17 -7.95 148.47 -7.38 Q 148.77 -6.81 148.77 -6 L 148.77 -6 L 148.77 -2.97 Q 148.77 -2.52 148.61 -2 Q 148.45 -1.49 148.1 -1.04 Q 147.75 -0.6 147.18 -0.3 Q 146.61 0 145.79 0 L 145.79 0 L 141.9 0 Q 141.45 0 140.93 -0.16 Q 140.42 -0.32 139.97 -0.67 Q 139.53 -1.02 139.23 -1.59 Q 138.93 -2.16 138.93 -2.97 Z M 152.78 -6.81 L 149.98 -6.81 L 149.98 -8.97 L 152.78 -8.97 L 152.78 -11.9 L 154.97 -11.9 L 154.97 -8.97 L 158.74 -8.97 L 158.74 -6.81 L 154.97 -6.81 L 154.97 0 L 152.78 0 L 152.78 -6.81 Z M 162.35 0 L 160.19 0 L 160.19 -8.97 L 162.35 -8.97 L 162.35 0 Z M 162.35 -10.82 L 160.19 -10.82 L 160.19 -12.77 L 162.35 -12.77 L 162.35 -10.82 Z M 164.23 -3.03 L 164.23 -3.03 L 164.23 -5.95 Q 164.23 -6.78 164.53 -7.36 Q 164.84 -7.94 165.29 -8.3 Q 165.74 -8.66 166.27 -8.82 Q 166.8 -8.97 167.25 -8.97 L 167.25 -8.97 L 171.15 -8.97 Q 171.98 -8.97 172.56 -8.67 Q 173.14 -8.38 173.49 -7.92 Q 173.85 -7.47 174.01 -6.94 Q 174.18 -6.41 174.18 -5.95 L 174.18 -5.95 L 174.18 -3.03 Q 174.18 -2.47 174.03 -2.03 Q 173.89 -1.59 173.66 -1.25 Q 173.43 -0.91 173.12 -0.68 Q 172.81 -0.44 172.48 -0.29 Q 172.14 -0.14 171.8 -0.07 Q 171.45 0 171.15 0 L 171.15 0 L 167.25 0 Q 166.8 0 166.27 -0.16 Q 165.74 -0.32 165.29 -0.68 Q 164.84 -1.04 164.53 -1.61 Q 164.23 -2.19 164.23 -3.03 Z M 166.39 -5.95 L 166.39 -3.03 Q 166.39 -2.61 166.61 -2.38 Q 166.84 -2.16 167.27 -2.16 L 167.27 -2.16 L 171.15 -2.16 Q 171.59 -2.16 171.8 -2.38 Q 172.02 -2.61 172.02 -3.03 L 172.02 -3.03 L 172.02 -5.94 Q 172.02 -6.38 171.79 -6.6 Q 171.57 -6.81 171.15 -6.81 L 171.15 -6.81 L 167.27 -6.81 Q 166.84 -6.81 166.61 -6.59 Q 166.39 -6.38 166.39 -5.95 L 166.39 -5.95 Z M 178.17 0 L 176.01 0 L 176.01 -7.9 Q 176.01 -8.13 176.09 -8.32 Q 176.18 -8.52 176.33 -8.66 Q 176.47 -8.81 176.67 -8.89 Q 176.87 -8.97 177.1 -8.97 L 177.1 -8.97 L 181.96 -8.97 Q 182.37 -8.97 182.82 -8.88 Q 183.27 -8.79 183.72 -8.59 Q 184.16 -8.38 184.56 -8.07 Q 184.97 -7.76 185.28 -7.32 Q 185.59 -6.87 185.77 -6.29 Q 185.95 -5.71 185.95 -4.98 L 185.95 -4.98 L 185.95 0 L 183.8 0 L 183.8 -4.98 Q 183.8 -5.4 183.65 -5.74 Q 183.51 -6.08 183.26 -6.32 Q 183.01 -6.56 182.67 -6.69 Q 182.33 -6.81 181.94 -6.81 L 181.94 -6.81 L 178.17 -6.81 L 178.17 0 Z M 187.54 -6.38 L 187.54 -6.38 Q 187.54 -7.1 187.8 -7.59 Q 188.05 -8.08 188.44 -8.39 Q 188.83 -8.7 189.29 -8.84 Q 189.75 -8.97 190.15 -8.97 L 190.15 -8.97 L 195.45 -8.97 L 195.45 -6.81 L 190.16 -6.81 Q 190 -6.81 189.9 -6.78 Q 189.81 -6.74 189.76 -6.68 Q 189.71 -6.62 189.71 -6.55 Q 189.7 -6.47 189.7 -6.41 L 189.7 -6.41 Q 189.71 -6.28 189.75 -6.2 Q 189.79 -6.13 189.85 -6.09 Q 189.91 -6.06 189.99 -6.06 Q 190.07 -6.05 190.15 -6.05 L 190.15 -6.05 L 193.49 -6.05 Q 194.32 -6.05 194.9 -5.75 Q 195.48 -5.45 195.84 -5 Q 196.2 -4.55 196.36 -4.02 Q 196.52 -3.49 196.52 -3.03 L 196.52 -3.03 Q 196.52 -2.47 196.38 -2.03 Q 196.24 -1.59 196.01 -1.25 Q 195.77 -0.91 195.47 -0.68 Q 195.16 -0.44 194.82 -0.29 Q 194.49 -0.14 194.14 -0.07 Q 193.8 0 193.49 0 L 193.49 0 L 187.65 0 L 187.65 -2.16 L 193.47 -2.16 Q 193.91 -2.16 194.14 -2.38 Q 194.36 -2.61 194.36 -3.03 L 194.36 -3.03 Q 194.32 -3.89 193.49 -3.89 L 193.49 -3.89 L 190.15 -3.89 Q 189.43 -3.89 188.93 -4.14 Q 188.44 -4.39 188.12 -4.76 Q 187.81 -5.14 187.68 -5.57 Q 187.54 -6 187.54 -6.38 Z M 205.64 -6.81 L 202.83 -6.81 L 202.83 -8.97 L 205.64 -8.97 L 205.64 -11.9 L 207.82 -11.9 L 207.82 -8.97 L 211.59 -8.97 L 211.59 -6.81 L 207.82 -6.81 L 207.82 0 L 205.64 0 L 205.64 -6.81 Z M 212.79 -3.03 L 212.79 -3.03 L 212.79 -5.95 Q 212.79 -6.78 213.09 -7.36 Q 213.4 -7.94 213.85 -8.3 Q 214.3 -8.66 214.83 -8.82 Q 215.36 -8.97 215.81 -8.97 L 215.81 -8.97 L 219.71 -8.97 Q 220.54 -8.97 221.12 -8.67 Q 221.7 -8.38 222.05 -7.92 Q 222.41 -7.47 222.57 -6.94 Q 222.73 -6.41 222.73 -5.95 L 222.73 -5.95 L 222.73 -3.03 Q 222.73 -2.47 222.59 -2.03 Q 222.45 -1.59 222.22 -1.25 Q 221.99 -0.91 221.68 -0.68 Q 221.37 -0.44 221.04 -0.29 Q 220.7 -0.14 220.36 -0.07 Q 220.01 0 219.71 0 L 219.71 0 L 215.81 0 Q 215.36 0 214.83 -0.16 Q 214.3 -0.32 213.85 -0.68 Q 213.4 -1.04 213.09 -1.61 Q 212.79 -2.19 212.79 -3.03 Z M 214.95 -5.95 L 214.95 -3.03 Q 214.95 -2.61 215.17 -2.38 Q 215.4 -2.16 215.83 -2.16 L 215.83 -2.16 L 219.71 -2.16 Q 220.15 -2.16 220.36 -2.38 Q 220.58 -2.61 220.58 -3.03 L 220.58 -3.03 L 220.58 -5.94 Q 220.58 -6.38 220.35 -6.6 Q 220.13 -6.81 219.71 -6.81 L 219.71 -6.81 L 215.83 -6.81 Q 215.4 -6.81 215.17 -6.59 Q 214.95 -6.38 214.95 -5.95 L 214.95 -5.95 Z M 232.21 0 L 230.05 0 L 230.05 -5.95 Q 230.05 -6.51 230.19 -6.95 Q 230.33 -7.39 230.57 -7.72 Q 230.8 -8.06 231.11 -8.3 Q 231.42 -8.53 231.75 -8.68 Q 232.09 -8.83 232.43 -8.9 Q 232.78 -8.97 233.08 -8.97 L 233.08 -8.97 L 237.95 -8.97 L 237.95 -6.81 L 233.09 -6.81 Q 232.65 -6.81 232.43 -6.59 Q 232.21 -6.38 232.21 -5.95 L 232.21 -5.95 L 232.21 0 Z M 239.15 -2.97 L 239.15 -2.97 L 239.15 -6 Q 239.15 -6.45 239.31 -6.97 Q 239.47 -7.49 239.82 -7.93 Q 240.17 -8.38 240.74 -8.67 Q 241.31 -8.97 242.13 -8.97 L 242.13 -8.97 L 246.02 -8.97 Q 246.47 -8.97 246.99 -8.82 Q 247.5 -8.66 247.95 -8.3 Q 248.39 -7.95 248.69 -7.38 Q 248.99 -6.81 248.99 -6 L 248.99 -6 Q 248.99 -5.55 248.83 -5.03 Q 248.67 -4.52 248.32 -4.07 Q 247.97 -3.63 247.4 -3.33 Q 246.83 -3.03 246.02 -3.03 L 246.02 -3.03 L 242.13 -3.03 L 242.13 -5.08 L 246.02 -5.08 Q 246.46 -5.08 246.7 -5.35 Q 246.94 -5.62 246.94 -6.02 L 246.94 -6.02 Q 246.94 -6.44 246.67 -6.68 Q 246.4 -6.92 246.02 -6.92 L 246.02 -6.92 L 242.13 -6.92 Q 241.69 -6.92 241.44 -6.65 Q 241.2 -6.38 241.2 -5.98 L 241.2 -5.98 L 241.2 -2.97 Q 241.2 -2.54 241.47 -2.3 Q 241.74 -2.06 242.14 -2.06 L 242.14 -2.06 L 246.02 -2.06 L 246.02 0 L 242.13 0 Q 241.68 0 241.16 -0.16 Q 240.64 -0.32 240.2 -0.67 Q 239.75 -1.02 239.45 -1.59 Q 239.15 -2.16 239.15 -2.97 Z M 249.8 -2.97 L 249.8 -2.97 Q 249.8 -3.42 249.96 -3.94 Q 250.12 -4.47 250.47 -4.91 Q 250.82 -5.35 251.39 -5.65 Q 251.96 -5.95 252.78 -5.95 L 252.78 -5.95 L 256.67 -5.95 L 256.67 -3.89 L 252.78 -3.89 Q 252.34 -3.89 252.09 -3.62 Q 251.85 -3.35 251.85 -2.96 L 251.85 -2.96 Q 251.85 -2.53 252.13 -2.3 Q 252.41 -2.06 252.79 -2.06 L 252.79 -2.06 L 256.67 -2.06 Q 257.11 -2.06 257.35 -2.32 Q 257.59 -2.59 257.59 -2.99 L 257.59 -2.99 L 257.59 -6 Q 257.59 -6.42 257.33 -6.67 Q 257.07 -6.92 256.67 -6.92 L 256.67 -6.92 L 251.93 -6.92 L 251.93 -8.97 L 256.67 -8.97 Q 257.12 -8.97 257.64 -8.82 Q 258.15 -8.66 258.6 -8.3 Q 259.04 -7.95 259.34 -7.38 Q 259.64 -6.81 259.64 -6 L 259.64 -6 L 259.64 -2.97 Q 259.64 -2.52 259.48 -2 Q 259.32 -1.49 258.97 -1.04 Q 258.62 -0.6 258.05 -0.3 Q 257.48 0 256.67 0 L 256.67 0 L 252.78 0 Q 252.33 0 251.81 -0.16 Q 251.29 -0.32 250.85 -0.67 Q 250.4 -1.02 250.1 -1.59 Q 249.8 -2.16 249.8 -2.97 Z M 261.43 -3.03 L 261.43 -3.03 L 261.43 -12.77 L 263.59 -12.77 L 263.59 -3.03 Q 263.59 -2.63 263.84 -2.39 Q 264.09 -2.16 264.46 -2.16 L 264.46 -2.16 L 265.43 -2.16 L 265.43 0 L 264.46 0 Q 264 0 263.47 -0.16 Q 262.94 -0.32 262.49 -0.68 Q 262.03 -1.04 261.73 -1.61 Q 261.43 -2.19 261.43 -3.03 Z M 269 0 L 266.85 0 L 266.85 -8.97 L 269 -8.97 L 269 0 Z M 269 -10.82 L 266.85 -10.82 L 266.85 -12.77 L 269 -12.77 L 269 -10.82 Z M 273.28 -6.81 L 270.47 -6.81 L 270.47 -8.97 L 273.28 -8.97 L 273.28 -11.9 L 275.46 -11.9 L 275.46 -8.97 L 279.23 -8.97 L 279.23 -6.81 L 275.46 -6.81 L 275.46 0 L 273.28 0 L 273.28 -6.81 Z M 280.6 -3.03 L 280.6 -3.03 L 280.6 -8.97 L 282.76 -8.97 L 282.76 -3.03 Q 282.76 -2.61 282.98 -2.38 Q 283.21 -2.16 283.65 -2.16 L 283.65 -2.16 L 287.52 -2.16 L 287.52 0 L 283.63 0 Q 283.16 0 282.64 -0.16 Q 282.11 -0.32 281.65 -0.68 Q 281.2 -1.04 280.9 -1.61 Q 280.6 -2.19 280.6 -3.03 Z M 283.63 3.89 L 283.63 1.73 L 287.52 1.73 Q 287.95 1.73 288.17 1.51 Q 288.39 1.29 288.39 0.86 L 288.39 0.86 L 288.39 -8.97 L 290.54 -8.97 L 290.54 0.86 Q 290.54 1.42 290.4 1.86 Q 290.26 2.31 290.03 2.64 Q 289.8 2.98 289.49 3.22 Q 289.18 3.45 288.85 3.6 Q 288.51 3.75 288.17 3.82 Q 287.83 3.89 287.52 3.89 L 287.52 3.89 L 283.63 3.89 Z" stroke-linecap="round" />
</g>
		<g transform="matrix(0.849613161943246 0 0 0.849613161943246 -5.684342e-14 -60.72466938320997)" id="logo-logo"  >
<g style=""  paint-order="stroke"   >
		<g transform="matrix(3.439108631317243 0 0 -3.439108631317243 -83.04243656610171 83.04295243239653)"  >
<path style="stroke: none; stroke-width: 1; stroke-dasharray: none; stroke-linecap: butt; stroke-dashoffset: 0; stroke-linejoin: miter; stroke-miterlimit: 4; fill: rgb(255,222,89); fill-rule: nonzero; opacity: 1;"  paint-order="stroke"  transform=" translate(10.674, -7.174499999999998)" d="m 0 0 c 0 -1.932 -1.567 -3.499 -3.5 -3.499 h -14.348 c -1.932 0 -3.5 1.567 -3.5 3.499 v 14.349 c 0 1.932 1.568 3.499 3.5 3.499 H -3.5 c 1.933 0 3.5 -1.567 3.5 -3.499 z" stroke-linecap="round" />
</g>
		<g transform="matrix(3.439108631317243 0 0 -3.439108631317243 0 83.04295243239653)"  >
<path style="stroke: none; stroke-width: 1; stroke-dasharray: none; stroke-linecap: butt; stroke-dashoffset: 0; stroke-linejoin: miter; stroke-miterlimit: 4; fill: rgb(255,222,89); fill-rule: nonzero; opacity: 1;"  paint-order="stroke"  transform=" translate(10.674, -7.174499999999998)" d="m 0 0 c 0 -1.932 -1.566 -3.499 -3.5 -3.499 h -14.348 c -1.932 0 -3.5 1.567 -3.5 3.499 v 14.349 c 0 1.932 1.568 3.499 3.5 3.499 H -3.5 c 1.934 0 3.5 -1.567 3.5 -3.499 z" stroke-linecap="round" />
</g>
		<g transform="matrix(3.439108631317243 0 0 -3.439108631317243 83.04415612041737 83.04295243239653)"  >
<path style="stroke: none; stroke-width: 1; stroke-dasharray: none; stroke-linecap: butt; stroke-dashoffset: 0; stroke-linejoin: miter; stroke-miterlimit: 4; fill: rgb(255,222,89); fill-rule: nonzero; opacity: 1;"  paint-order="stroke"  transform=" translate(10.673499999999999, -7.174499999999998)" d="m 0 0 c 0 -1.932 -1.567 -3.499 -3.499 -3.499 h -14.349 c -1.932 0 -3.499 1.567 -3.499 3.499 v 14.349 c 0 1.932 1.567 3.499 3.499 3.499 H -3.499 C -1.567 17.848 0 16.281 0 14.349 Z" stroke-linecap="round" />
</g>
		<g transform="matrix(3.439108631317243 0 0 -3.439108631317243 -83.04243656610171 0.000515866294620082)"  >
<path style="stroke: none; stroke-width: 1; stroke-dasharray: none; stroke-linecap: butt; stroke-dashoffset: 0; stroke-linejoin: miter; stroke-miterlimit: 4; fill: rgb(255,222,89); fill-rule: nonzero; opacity: 1;"  paint-order="stroke"  transform=" translate(10.674, -7.173500000000001)" d="m 0 0 c 0 -1.933 -1.567 -3.5 -3.5 -3.5 h -14.348 c -1.932 0 -3.5 1.567 -3.5 3.5 v 14.348 c 0 1.933 1.568 3.499 3.5 3.499 H -3.5 c 1.933 0 3.5 -1.566 3.5 -3.499 z" stroke-linecap="round" />
</g>
		<g transform="matrix(3.439108631317243 0 0 -3.439108631317243 -83.04243656610171 -83.04192069980718)"  >
<path style="stroke: none; stroke-width: 1; stroke-dasharray: none; stroke-linecap: butt; stroke-dashoffset: 0; stroke-linejoin: miter; stroke-miterlimit: 4; fill: rgb(255,222,89); fill-rule: nonzero; opacity: 1;"  paint-order="stroke"  transform=" translate(10.674, -7.173500000000001)" d="m 0 0 c 0 -1.933 -1.567 -3.5 -3.5 -3.5 h -14.348 c -1.932 0 -3.5 1.567 -3.5 3.5 v 14.348 c 0 1.933 1.568 3.499 3.5 3.499 H -3.5 c 1.933 0 3.5 -1.566 3.5 -3.499 z" stroke-linecap="round" />
</g>
		<g transform="matrix(3.439108631317243 0 0 -3.439108631317243 0 0.000515866294620082)"  >
<linearGradient id="SVGID_7_3_3_3_3_6_461417" gradientUnits="userSpaceOnUse" gradientTransform="matrix(1 0 0 1 -21.348 -3.5)"  x1="0" y1="0" x2="0" y2="21">
<stop offset="0%" style="stop-color:rgb(248,77,158);stop-opacity: 1"/>
<stop offset="100%" style="stop-color:rgb(255,116,117);stop-opacity: 1"/>
</linearGradient>
<path style="stroke: none; stroke-width: 1; stroke-dasharray: none; stroke-linecap: butt; stroke-dashoffset: 0; stroke-linejoin: miter; stroke-miterlimit: 4; fill: url(#SVGID_7_3_3_3_3_6_461417); fill-rule: nonzero; opacity: 1;"  paint-order="stroke"  transform=" translate(10.674, -7.173500000000001)" d="m 0 0 c 0 -1.933 -1.566 -3.5 -3.5 -3.5 h -14.348 c -1.932 0 -3.5 1.567 -3.5 3.5 v 14.348 c 0 1.933 1.568 3.499 3.5 3.499 H -3.5 c 1.934 0 3.5 -1.566 3.5 -3.499 z" stroke-linecap="round" />
</g>
		<g transform="matrix(3.439108631317243 0 0 -3.439108631317243 95.01053460308572 -39.03818185123987)"  >
<linearGradient id="SVGID_7_3_3_3_3_6_461418" gradientUnits="userSpaceOnUse" gradientTransform="matrix(1 0 0 1 -14.388 -2.359)"  x1="0" y1="0" x2="0" y2="21">
<stop offset="0%" style="stop-color:rgb(248,77,158);stop-opacity: 1"/>
<stop offset="100%" style="stop-color:rgb(255,116,117);stop-opacity: 1"/>
</linearGradient>
<path style="stroke: none; stroke-width: 1; stroke-dasharray: none; stroke-linecap: butt; stroke-dashoffset: 0; stroke-linejoin: miter; stroke-miterlimit: 4; fill: url(#SVGID_7_3_3_3_3_6_461418); fill-rule: nonzero; opacity: 1;"  paint-order="stroke"  transform=" translate(7.194, -4.835)" d="m 0 0 c 0 -1.303 -1.056 -2.359 -2.359 -2.359 h -9.67 c -1.303 0 -2.359 1.056 -2.359 2.359 v 9.67 c 0 1.303 1.056 2.359 2.359 2.359 h 9.67 C -1.056 12.029 0 10.973 0 9.67 Z" stroke-linecap="round" />
</g>
		<g transform="matrix(3.439108631317243 0 0 -3.439108631317243 39.037665984945136 -95.00933091506488)"  >
<linearGradient id="SVGID_7_3_3_3_3_6_461419" gradientUnits="userSpaceOnUse" gradientTransform="matrix(1 0 0 1 -14.388 -2.359)"  x1="0" y1="0" x2="0" y2="21">
<stop offset="0%" style="stop-color:rgb(248,77,158);stop-opacity: 1"/>
<stop offset="100%" style="stop-color:rgb(255,116,117);stop-opacity: 1"/>
</linearGradient>
<path style="stroke: none; stroke-width: 1; stroke-dasharray: none; stroke-linecap: butt; stroke-dashoffset: 0; stroke-linejoin: miter; stroke-miterlimit: 4; fill: url(#SVGID_7_3_3_3_3_6_461419); fill-rule: nonzero; opacity: 1;"  paint-order="stroke"  transform=" translate(7.194, -4.835)" d="m 0 0 c 0 -1.303 -1.056 -2.359 -2.358 -2.359 h -9.67 c -1.303 0 -2.36 1.056 -2.36 2.359 v 9.67 c 0 1.303 1.057 2.359 2.36 2.359 h 9.67 C -1.056 12.029 0 10.973 0 9.67 Z" stroke-linecap="round" />
</g>
		<g transform="matrix(3.439108631317243 0 0 -3.439108631317243 95.01053460308572 -95.00933091506488)"  >
<linearGradient id="SVGID_7_3_3_3_3_6_461420" gradientUnits="userSpaceOnUse" gradientTransform="matrix(1 0 0 1 -14.388 -2.359)"  x1="0" y1="0" x2="0" y2="21">
<stop offset="0%" style="stop-color:rgb(248,77,158);stop-opacity: 1"/>
<stop offset="100%" style="stop-color:rgb(255,116,117);stop-opacity: 1"/>
</linearGradient>
<path style="stroke: none; stroke-width: 1; stroke-dasharray: none; stroke-linecap: butt; stroke-dashoffset: 0; stroke-linejoin: miter; stroke-miterlimit: 4; fill: url(#SVGID_7_3_3_3_3_6_461420); fill-rule: nonzero; opacity: 1;"  paint-order="stroke"  transform=" translate(7.194, -4.835)" d="m 0 0 c 0 -1.303 -1.056 -2.359 -2.359 -2.359 h -9.67 c -1.303 0 -2.359 1.056 -2.359 2.359 v 9.67 c 0 1.303 1.056 2.359 2.359 2.359 h 9.67 C -1.056 12.029 0 10.973 0 9.67 Z" stroke-linecap="round" />
</g>
</g>
</g>
</g>
</g>
</svg>